<svg width="112" height="32" viewBox="0 0 112 32" fill="none" xmlns="http://www.w3.org/2000/svg">
<g clip-path="url(#clip0_1_720)">
<path fill-rule="evenodd" clip-rule="evenodd" d="M4.1314 12.2208L1.93457 31.9397H12.3722C15.8371 31.9397 18.8439 31.2524 21.3924 29.8779C23.941 28.5034 25.9168 26.6135 27.32 24.2081C28.7231 21.774 29.4247 19.0107 29.4247 15.9181C29.4247 12.8254 28.7231 10.0764 27.32 7.67105C25.9168 5.26566 23.941 3.37572 21.3924 2.00121C18.8439 0.626706 15.8371 -0.0605469 12.3722 -0.0605469H5.49963L5.04067 4.05914C6.85064 8.72172 11.6918 11.4844 14.7355 12.7616L16.0932 9.26124C16.238 8.88832 16.511 8.58277 16.8523 8.41181C17.0212 8.32656 17.2019 8.27702 17.3841 8.26603C17.5663 8.25504 17.7462 8.28283 17.9137 8.34779C18.0812 8.41275 18.2328 8.5136 18.3599 8.64454C18.487 8.77549 18.5871 8.93394 18.6543 9.11079L23.2881 20.9507L11.8819 26.5703C11.6273 26.6971 11.3485 26.7423 11.0805 26.7003C10.8125 26.6582 10.5675 26.5308 10.3761 26.3341C10.1848 26.1374 10.0558 25.8802 10.0053 25.5949C9.9549 25.3096 9.98529 25.0089 10.0927 24.7308L11.4886 21.132C8.37321 19.4641 5.53056 16.0529 4.1314 12.2208Z" fill="#FE4A00"/>
</g>
<path d="M43.9867 24.5H40.3422L40.3656 22.168H43.9867C45.0414 22.168 45.9242 21.9375 46.6352 21.4766C47.3539 21.0156 47.893 20.3555 48.2523 19.4961C48.6195 18.6367 48.8031 17.6133 48.8031 16.4258V15.5C48.8031 14.5781 48.6977 13.7617 48.4867 13.0508C48.2836 12.3398 47.9789 11.7422 47.5727 11.2578C47.1742 10.7734 46.682 10.4062 46.0961 10.1562C45.518 9.90625 44.85 9.78125 44.0922 9.78125H40.2719V7.4375H44.0922C45.225 7.4375 46.2602 7.62891 47.1977 8.01172C48.1352 8.38672 48.9437 8.92969 49.6234 9.64062C50.3109 10.3516 50.8383 11.2031 51.2055 12.1953C51.5727 13.1875 51.7562 14.2969 51.7562 15.5234V16.4258C51.7562 17.6523 51.5727 18.7617 51.2055 19.7539C50.8383 20.7461 50.3109 21.5977 49.6234 22.3086C48.9359 23.0117 48.1156 23.5547 47.1625 23.9375C46.2172 24.3125 45.1586 24.5 43.9867 24.5ZM41.9711 7.4375V24.5H39.0297V7.4375H41.9711ZM61.3366 21.957V15.9102C61.3366 15.457 61.2545 15.0664 61.0905 14.7383C60.9264 14.4102 60.6764 14.1562 60.3405 13.9766C60.0123 13.7969 59.5983 13.707 59.0983 13.707C58.6373 13.707 58.2389 13.7852 57.903 13.9414C57.567 14.0977 57.3053 14.3086 57.1178 14.5742C56.9303 14.8398 56.8366 15.1406 56.8366 15.4766H54.0241C54.0241 14.9766 54.1452 14.4922 54.3873 14.0234C54.6295 13.5547 54.9811 13.1367 55.442 12.7695C55.903 12.4023 56.4537 12.1133 57.0944 11.9023C57.735 11.6914 58.4537 11.5859 59.2506 11.5859C60.2037 11.5859 61.0475 11.7461 61.7819 12.0664C62.5241 12.3867 63.1061 12.8711 63.528 13.5195C63.9577 14.1602 64.1725 14.9648 64.1725 15.9336V21.5703C64.1725 22.1484 64.2116 22.668 64.2897 23.1289C64.3756 23.582 64.4967 23.9766 64.653 24.3125V24.5H61.7584C61.6256 24.1953 61.5202 23.8086 61.442 23.3398C61.3717 22.8633 61.3366 22.4023 61.3366 21.957ZM61.7467 16.7891L61.7702 18.5352H59.7428C59.2194 18.5352 58.7584 18.5859 58.36 18.6875C57.9616 18.7812 57.6295 18.9219 57.3639 19.1094C57.0983 19.2969 56.8991 19.5234 56.7662 19.7891C56.6334 20.0547 56.567 20.3555 56.567 20.6914C56.567 21.0273 56.6452 21.3359 56.8014 21.6172C56.9577 21.8906 57.1842 22.1055 57.4811 22.2617C57.7858 22.418 58.153 22.4961 58.5827 22.4961C59.1608 22.4961 59.6647 22.3789 60.0944 22.1445C60.5319 21.9023 60.8756 21.6094 61.1256 21.2656C61.3756 20.9141 61.5084 20.582 61.5241 20.2695L62.4381 21.5234C62.3444 21.8438 62.1842 22.1875 61.9577 22.5547C61.7311 22.9219 61.4342 23.2734 61.067 23.6094C60.7077 23.9375 60.2741 24.207 59.7662 24.418C59.2662 24.6289 58.6881 24.7344 58.0319 24.7344C57.2037 24.7344 56.4655 24.5703 55.817 24.2422C55.1686 23.9062 54.6608 23.457 54.2936 22.8945C53.9264 22.3242 53.7428 21.6797 53.7428 20.9609C53.7428 20.2891 53.8678 19.6953 54.1178 19.1797C54.3756 18.6562 54.7506 18.2188 55.2428 17.8672C55.7428 17.5156 56.3522 17.25 57.0709 17.0703C57.7897 16.8828 58.61 16.7891 59.5319 16.7891H61.7467ZM69.7216 14.2344V24.5H66.8973V11.8203H69.5927L69.7216 14.2344ZM73.6005 11.7383L73.577 14.3633C73.4052 14.332 73.2177 14.3086 73.0145 14.293C72.8192 14.2773 72.6239 14.2695 72.4286 14.2695C71.9442 14.2695 71.5184 14.3398 71.1512 14.4805C70.7841 14.6133 70.4755 14.8086 70.2255 15.0664C69.9833 15.3164 69.7958 15.6211 69.663 15.9805C69.5302 16.3398 69.452 16.7422 69.4286 17.1875L68.7841 17.2344C68.7841 16.4375 68.8622 15.6992 69.0184 15.0195C69.1747 14.3398 69.4091 13.7422 69.7216 13.2266C70.0419 12.7109 70.4403 12.3086 70.9169 12.0195C71.4012 11.7305 71.9598 11.5859 72.5927 11.5859C72.7645 11.5859 72.9481 11.6016 73.1434 11.6328C73.3466 11.6641 73.4989 11.6992 73.6005 11.7383ZM77.9777 6.5V24.5H75.1417V6.5H77.9777ZM85.8527 11.8203L80.3331 17.9375L77.3097 21.0312L76.5714 18.6406L78.8566 15.8164L82.4425 11.8203H85.8527ZM83.0519 24.5L78.9386 18.5469L80.7198 16.5664L86.3214 24.5H83.0519ZM92.7611 24.7344C91.8236 24.7344 90.9759 24.582 90.2181 24.2773C89.4681 23.9648 88.8275 23.5312 88.2962 22.9766C87.7728 22.4219 87.3705 21.7695 87.0892 21.0195C86.808 20.2695 86.6673 19.4609 86.6673 18.5938V18.125C86.6673 17.1328 86.8119 16.2344 87.1009 15.4297C87.39 14.625 87.7923 13.9375 88.308 13.3672C88.8236 12.7891 89.433 12.3477 90.1361 12.043C90.8392 11.7383 91.6009 11.5859 92.4212 11.5859C93.3275 11.5859 94.1205 11.7383 94.8002 12.043C95.4798 12.3477 96.0423 12.7773 96.4877 13.332C96.9408 13.8789 97.2767 14.5312 97.4955 15.2891C97.722 16.0469 97.8353 16.8828 97.8353 17.7969V19.0039H88.0384V16.9766H95.0462V16.7539C95.0306 16.2461 94.9291 15.7695 94.7416 15.3242C94.5619 14.8789 94.2845 14.5195 93.9095 14.2461C93.5345 13.9727 93.0345 13.8359 92.4095 13.8359C91.9408 13.8359 91.5228 13.9375 91.1556 14.1406C90.7962 14.3359 90.4955 14.6211 90.2533 14.9961C90.0111 15.3711 89.8236 15.8242 89.6908 16.3555C89.5658 16.8789 89.5033 17.4688 89.5033 18.125V18.5938C89.5033 19.1484 89.5775 19.6641 89.7259 20.1406C89.8822 20.6094 90.1087 21.0195 90.4056 21.3711C90.7025 21.7227 91.0619 22 91.4837 22.2031C91.9056 22.3984 92.3861 22.4961 92.9252 22.4961C93.6048 22.4961 94.2103 22.3594 94.7416 22.0859C95.2728 21.8125 95.7337 21.4258 96.1244 20.9258L97.6127 22.3672C97.3392 22.7656 96.9837 23.1484 96.5462 23.5156C96.1087 23.875 95.5736 24.168 94.9408 24.3945C94.3158 24.6211 93.5892 24.7344 92.7611 24.7344ZM102.599 14.5273V24.5H99.775V11.8203H102.435L102.599 14.5273ZM102.095 17.6914L101.181 17.6797C101.189 16.7812 101.314 15.957 101.556 15.207C101.806 14.457 102.15 13.8125 102.587 13.2734C103.033 12.7344 103.564 12.3203 104.181 12.0312C104.798 11.7344 105.486 11.5859 106.244 11.5859C106.853 11.5859 107.404 11.6719 107.896 11.8438C108.396 12.0078 108.822 12.2773 109.173 12.6523C109.533 13.0273 109.806 13.5156 109.994 14.1172C110.181 14.7109 110.275 15.4414 110.275 16.3086V24.5H107.439V16.2969C107.439 15.6875 107.349 15.207 107.17 14.8555C106.998 14.4961 106.744 14.2422 106.408 14.0938C106.08 13.9375 105.67 13.8594 105.177 13.8594C104.693 13.8594 104.259 13.9609 103.877 14.1641C103.494 14.3672 103.17 14.6445 102.904 14.9961C102.646 15.3477 102.447 15.7539 102.306 16.2148C102.166 16.6758 102.095 17.168 102.095 17.6914Z" fill="white"/>
<defs>
<clipPath id="clip0_1_720">
<rect width="32" height="32" fill="white"/>
</clipPath>
</defs>
</svg>
