<svg width="164" height="40" viewBox="0 0 164 40" fill="none" xmlns="http://www.w3.org/2000/svg">
<g clip-path="url(#clip0_2205_8472)">
<path d="M47.9805 28.0911H59.641V24.5789H52.1249V11.3496H47.9805V28.0911Z" fill="white" fill-opacity="0.5"/>
<path d="M66.5484 25.7498C64.886 25.7498 64.0197 24.2981 64.0197 22.1205C64.0197 19.943 64.886 18.4678 66.5484 18.4678C68.2109 18.4678 69.1006 19.943 69.1006 22.1205C69.1006 24.2981 68.2109 25.7498 66.5484 25.7498ZM66.5719 28.4659C70.4353 28.4659 72.9641 25.7264 72.9641 22.1205C72.9641 18.5147 70.4353 15.7751 66.5719 15.7751C62.7319 15.7751 60.1562 18.5147 60.1562 22.1205C60.1562 25.7264 62.7319 28.4659 66.5719 28.4659Z" fill="white" fill-opacity="0.5"/>
<path d="M79.6503 32.2356C81.4298 32.2356 82.9986 31.8376 84.0522 30.901C85.0122 30.0346 85.6444 28.7234 85.6444 26.9205V16.1029H81.9917V17.3907H81.9449C81.2425 16.3839 80.1654 15.7517 78.5732 15.7517C75.5996 15.7517 73.5391 18.2337 73.5391 21.7459C73.5391 25.422 76.0444 27.4356 78.7371 27.4356C80.1888 27.4356 81.102 26.8502 81.8044 26.0541H81.8981V27.2483C81.8981 28.7 81.2191 29.5429 79.6035 29.5429C78.3391 29.5429 77.7069 29.0044 77.4961 28.3722H73.7966C74.1713 30.8776 76.3488 32.2356 79.6503 32.2356ZM79.6269 24.6024C78.1986 24.6024 77.262 23.4317 77.262 21.6288C77.262 19.8024 78.1986 18.6317 79.6269 18.6317C81.2191 18.6317 82.062 19.9898 82.062 21.6054C82.062 23.2912 81.2893 24.6024 79.6269 24.6024Z" fill="white" fill-opacity="0.5"/>
<path d="M93.1578 25.7498C91.4954 25.7498 90.629 24.2981 90.629 22.1205C90.629 19.943 91.4954 18.4678 93.1578 18.4678C94.8203 18.4678 95.71 19.943 95.71 22.1205C95.71 24.2981 94.8203 25.7498 93.1578 25.7498ZM93.1812 28.4659C97.0447 28.4659 99.5737 25.7264 99.5737 22.1205C99.5737 18.5147 97.0447 15.7751 93.1812 15.7751C89.3412 15.7751 86.7656 18.5147 86.7656 22.1205C86.7656 25.7264 89.3412 28.4659 93.1812 28.4659Z" fill="white" fill-opacity="0.5"/>
<path d="M100.688 28.0911H104.504V16.1028H100.688V28.0911ZM100.688 14.4403H104.504V11.3496H100.688V14.4403Z" fill="white" fill-opacity="0.5"/>
<path d="M106.16 32.0483H109.977V26.8502H110.024C110.773 27.8571 111.873 28.4659 113.419 28.4659C116.556 28.4659 118.64 25.9839 118.64 22.0971C118.64 18.4912 116.697 15.7517 113.512 15.7517C111.873 15.7517 110.703 16.4776 109.883 17.5546H109.813V16.1029H106.16V32.0483ZM112.435 25.5156C110.796 25.5156 109.86 24.181 109.86 22.2376C109.86 20.2941 110.703 18.819 112.365 18.819C114.004 18.819 114.777 20.1771 114.777 22.2376C114.777 24.2746 113.887 25.5156 112.435 25.5156Z" fill="white" fill-opacity="0.5"/>
<path d="M124.854 28.4659C127.991 28.4659 130.309 27.1078 130.309 24.4854C130.309 21.4181 127.827 20.8795 125.72 20.5283C124.198 20.2473 122.84 20.1302 122.84 19.2873C122.84 18.5381 123.566 18.1868 124.502 18.1868C125.556 18.1868 126.282 18.5146 126.422 19.5917H129.935C129.747 17.2268 127.921 15.7517 124.526 15.7517C121.693 15.7517 119.351 17.0629 119.351 19.5917C119.351 22.4015 121.576 22.9634 123.66 23.3146C125.252 23.5956 126.703 23.7127 126.703 24.7898C126.703 25.5624 125.978 25.9839 124.83 25.9839C123.566 25.9839 122.77 25.3985 122.629 24.2044H119.023C119.141 26.8502 121.341 28.4659 124.854 28.4659Z" fill="white" fill-opacity="0.5"/>
<path d="M135.492 28.4421C137.154 28.4421 138.208 27.7864 139.074 26.6157H139.145V28.0908H142.797V16.1025H138.981V22.7991C138.981 24.2274 138.185 25.2108 136.873 25.2108C135.656 25.2108 135.071 24.485 135.071 23.1738V16.1025H131.277V23.9699C131.277 26.6391 132.729 28.4421 135.492 28.4421Z" fill="white" fill-opacity="0.5"/>
<path d="M144.457 28.0912H148.274V21.3712C148.274 19.9429 148.976 18.9361 150.17 18.9361C151.318 18.9361 151.856 19.6854 151.856 20.9732V28.0912H155.673V21.3712C155.673 19.9429 156.352 18.9361 157.569 18.9361C158.717 18.9361 159.255 19.6854 159.255 20.9732V28.0912H163.072V20.2941C163.072 17.6015 161.714 15.7517 158.998 15.7517C157.452 15.7517 156.164 16.4073 155.228 17.859H155.181C154.572 16.5712 153.378 15.7517 151.809 15.7517C150.077 15.7517 148.929 16.5712 148.18 17.8122H148.11V16.1029H144.457V28.0912Z" fill="white" fill-opacity="0.5"/>
<path fill-rule="evenodd" clip-rule="evenodd" d="M8.97694 3.79625C7.58117 4.77221 6.31903 5.92611 5.22337 7.22506C9.70073 6.80938 15.3891 7.48813 21.9932 10.7902C29.0455 14.3163 34.7243 14.4355 38.6765 13.6731C38.3178 12.5874 37.8663 11.5439 37.3316 10.5519C32.8074 11.029 27.0074 10.3974 20.248 7.01782C15.9557 4.87167 12.1721 3.9876 8.97694 3.79625ZM34.6888 6.79018C31.116 2.79832 25.9239 0.286133 20.145 0.286133C18.4479 0.286133 16.8013 0.502823 15.2315 0.910016C17.3576 1.49012 19.6161 2.3388 21.9932 3.52737C26.942 6.00177 31.2146 6.79848 34.6888 6.79018ZM39.5215 17.4843C34.7468 18.4271 28.1536 18.2334 20.248 14.2806C12.8572 10.5852 6.9747 10.6318 3.00735 11.5134C2.80257 11.5589 2.60261 11.6067 2.40748 11.6565C1.88805 12.7861 1.47343 13.974 1.17594 15.2076C1.49368 15.1227 1.82201 15.042 2.16077 14.9667C6.97386 13.8971 13.7743 13.9436 21.9932 18.053C29.3841 21.7485 35.2665 21.7019 39.2339 20.8203C39.3698 20.7901 39.5038 20.7589 39.6355 20.7267C39.6499 20.4191 39.6572 20.1095 39.6572 19.7983C39.6572 19.0154 39.6111 18.2432 39.5215 17.4843ZM38.9984 24.8445C34.2701 25.6711 27.8689 25.3538 20.248 21.5435C12.8572 17.8481 6.9747 17.8946 3.00735 18.7763C2.12672 18.9719 1.33451 19.2102 0.635671 19.4618C0.633766 19.5737 0.632812 19.6859 0.632812 19.7983C0.632812 30.5746 9.36871 39.3105 20.145 39.3105C29.1763 39.3105 36.7745 33.1748 38.9984 24.8445Z" fill="white" fill-opacity="0.5"/>
</g>
<defs>
<clipPath id="clip0_2205_8472">
<rect width="162.927" height="40" fill="white" transform="translate(0.535156)"/>
</clipPath>
</defs>
</svg>
