<svg width="167" height="40" viewBox="0 0 167 40" fill="none" xmlns="http://www.w3.org/2000/svg">
<g clip-path="url(#clip0_2205_8439)">
<path d="M51.4961 27.4514H63.1566V23.9392H55.6405V10.71H51.4961V27.4514Z" fill="white" fill-opacity="0.5"/>
<path d="M70.068 25.1101C68.4055 25.1101 67.5392 23.6584 67.5392 21.4809C67.5392 19.3033 68.4055 17.8282 70.068 17.8282C71.7304 17.8282 72.6202 19.3033 72.6202 21.4809C72.6202 23.6584 71.7304 25.1101 70.068 25.1101ZM70.0914 27.8262C73.9548 27.8262 76.4836 25.0867 76.4836 21.4809C76.4836 17.875 73.9548 15.1355 70.0914 15.1355C66.2514 15.1355 63.6758 17.875 63.6758 21.4809C63.6758 25.0867 66.2514 27.8262 70.0914 27.8262Z" fill="white" fill-opacity="0.5"/>
<path d="M83.1698 31.5962C84.9493 31.5962 86.5181 31.1982 87.5718 30.2616C88.5318 29.3952 89.164 28.084 89.164 26.2811V15.4635H85.5113V16.7513H85.4644C84.762 15.7445 83.6849 15.1123 82.0927 15.1123C79.1191 15.1123 77.0586 17.5943 77.0586 21.1065C77.0586 24.7825 79.564 26.7962 82.2566 26.7962C83.7084 26.7962 84.6215 26.2108 85.324 25.4147H85.4176V26.6089C85.4176 28.0606 84.7386 28.9035 83.123 28.9035C81.8586 28.9035 81.2264 28.365 81.0157 27.7328H77.3162C77.6908 30.2382 79.8683 31.5962 83.1698 31.5962ZM83.1464 23.963C81.7181 23.963 80.7815 22.7923 80.7815 20.9894C80.7815 19.163 81.7181 17.9923 83.1464 17.9923C84.7386 17.9923 85.5815 19.3504 85.5815 20.966C85.5815 22.6518 84.8088 23.963 83.1464 23.963Z" fill="white" fill-opacity="0.5"/>
<path d="M96.6734 25.1101C95.011 25.1101 94.1447 23.6584 94.1447 21.4809C94.1447 19.3033 95.011 17.8282 96.6734 17.8282C98.3359 17.8282 99.2256 19.3033 99.2256 21.4809C99.2256 23.6584 98.3359 25.1101 96.6734 25.1101ZM96.6969 27.8262C100.56 27.8262 103.089 25.0867 103.089 21.4809C103.089 17.875 100.56 15.1355 96.6969 15.1355C92.8569 15.1355 90.2812 17.875 90.2812 21.4809C90.2812 25.0867 92.8569 27.8262 96.6969 27.8262Z" fill="white" fill-opacity="0.5"/>
<path d="M104.203 27.4514H108.02V15.4631H104.203V27.4514ZM104.203 13.8007H108.02V10.71H104.203V13.8007Z" fill="white" fill-opacity="0.5"/>
<path d="M109.676 31.4089H113.492V26.2108H113.539C114.288 27.2177 115.389 27.8265 116.934 27.8265C120.072 27.8265 122.156 25.3445 122.156 21.4577C122.156 17.8518 120.212 15.1123 117.028 15.1123C115.389 15.1123 114.218 15.8382 113.399 16.9152H113.328V15.4635H109.676V31.4089ZM115.951 24.8762C114.312 24.8762 113.375 23.5416 113.375 21.5982C113.375 19.6547 114.218 18.1796 115.881 18.1796C117.52 18.1796 118.292 19.5377 118.292 21.5982C118.292 23.6352 117.403 24.8762 115.951 24.8762Z" fill="white" fill-opacity="0.5"/>
<path d="M128.369 27.8265C131.507 27.8265 133.825 26.4684 133.825 23.846C133.825 20.7786 131.343 20.2401 129.236 19.8889C127.714 19.6079 126.356 19.4908 126.356 18.6479C126.356 17.8986 127.081 17.5474 128.018 17.5474C129.072 17.5474 129.798 17.8752 129.938 18.9523H133.45C133.263 16.5874 131.437 15.1123 128.042 15.1123C125.208 15.1123 122.867 16.4235 122.867 18.9523C122.867 21.7621 125.091 22.324 127.175 22.6752C128.767 22.9562 130.219 23.0733 130.219 24.1504C130.219 24.923 129.493 25.3445 128.346 25.3445C127.081 25.3445 126.285 24.7591 126.145 23.565H122.539C122.656 26.2108 124.857 27.8265 128.369 27.8265Z" fill="white" fill-opacity="0.5"/>
<path d="M139.012 27.8034C140.674 27.8034 141.728 27.1478 142.594 25.977H142.664V27.4522H146.317V15.4639H142.5V22.1605C142.5 23.5887 141.704 24.5722 140.393 24.5722C139.175 24.5722 138.59 23.8463 138.59 22.5351V15.4639H134.797V23.3312C134.797 26.0005 136.249 27.8034 139.012 27.8034Z" fill="white" fill-opacity="0.5"/>
<path d="M147.977 27.4518H151.793V20.7318C151.793 19.3035 152.496 18.2967 153.69 18.2967C154.837 18.2967 155.376 19.046 155.376 20.3338V27.4518H159.192V20.7318C159.192 19.3035 159.871 18.2967 161.089 18.2967C162.236 18.2967 162.775 19.046 162.775 20.3338V27.4518H166.591V19.6547C166.591 16.9621 165.233 15.1123 162.517 15.1123C160.972 15.1123 159.684 15.7679 158.747 17.2196H158.7C158.092 15.9318 156.898 15.1123 155.329 15.1123C153.596 15.1123 152.449 15.9318 151.699 17.1728H151.629V15.4635H147.977V27.4518Z" fill="white" fill-opacity="0.5"/>
<path fill-rule="evenodd" clip-rule="evenodd" d="M21.0825 39.1591C31.8588 39.1591 40.5947 30.4232 40.5947 19.6469C40.5947 8.87068 31.8588 0.134766 21.0825 0.134766C10.3062 0.134766 1.57031 8.87068 1.57031 19.6469C1.57031 30.4232 10.3062 39.1591 21.0825 39.1591ZM27.1696 9.22437C27.4659 8.17189 26.4446 7.54953 25.5118 8.21408L12.4904 17.4904C11.4788 18.2111 11.6379 19.6469 12.7295 19.6469H16.1583V19.6204H22.8411L17.3959 21.5417L14.9954 30.0696C14.6991 31.1221 15.7204 31.7444 16.6533 31.0798L29.6746 21.8035C30.6862 21.0828 30.527 19.6469 29.4356 19.6469H24.2358L27.1696 9.22437Z" fill="white" fill-opacity="0.5"/>
</g>
<defs>
<clipPath id="clip0_2205_8439">
<rect width="165.854" height="40" fill="white" transform="translate(0.902344)"/>
</clipPath>
</defs>
</svg>
