<svg width="164" height="40" viewBox="0 0 164 40" fill="none" xmlns="http://www.w3.org/2000/svg">
<g clip-path="url(#clip0_2205_8461)">
<path d="M48.0547 28.0911H59.7152V24.5789H52.1991V11.3496H48.0547V28.0911Z" fill="white" fill-opacity="0.5"/>
<path d="M66.6227 25.7498C64.9602 25.7498 64.0939 24.2981 64.0939 22.1205C64.0939 19.943 64.9602 18.4678 66.6227 18.4678C68.2851 18.4678 69.1749 19.943 69.1749 22.1205C69.1749 24.2981 68.2851 25.7498 66.6227 25.7498ZM66.6461 28.4659C70.5095 28.4659 73.0383 25.7264 73.0383 22.1205C73.0383 18.5147 70.5095 15.7751 66.6461 15.7751C62.8061 15.7751 60.2305 18.5147 60.2305 22.1205C60.2305 25.7264 62.8061 28.4659 66.6461 28.4659Z" fill="white" fill-opacity="0.5"/>
<path d="M79.7245 32.2356C81.504 32.2356 83.0728 31.8376 84.1265 30.901C85.0865 30.0346 85.7186 28.7234 85.7186 26.9205V16.1029H82.066V17.3907H82.0191C81.3167 16.3839 80.2396 15.7517 78.6474 15.7517C75.6738 15.7517 73.6133 18.2337 73.6133 21.7459C73.6133 25.422 76.1187 27.4356 78.8113 27.4356C80.263 27.4356 81.1762 26.8502 81.8786 26.0541H81.9723V27.2483C81.9723 28.7 81.2933 29.5429 79.6777 29.5429C78.4133 29.5429 77.7811 29.0044 77.5704 28.3722H73.8708C74.2455 30.8776 76.423 32.2356 79.7245 32.2356ZM79.7011 24.6024C78.2728 24.6024 77.3362 23.4317 77.3362 21.6288C77.3362 19.8024 78.2728 18.6317 79.7011 18.6317C81.2933 18.6317 82.1362 19.9898 82.1362 21.6054C82.1362 23.2912 81.3635 24.6024 79.7011 24.6024Z" fill="white" fill-opacity="0.5"/>
<path d="M93.232 25.7498C91.5696 25.7498 90.7033 24.2981 90.7033 22.1205C90.7033 19.943 91.5696 18.4678 93.232 18.4678C94.8945 18.4678 95.7842 19.943 95.7842 22.1205C95.7842 24.2981 94.8945 25.7498 93.232 25.7498ZM93.2555 28.4659C97.1189 28.4659 99.6479 25.7264 99.6479 22.1205C99.6479 18.5147 97.1189 15.7751 93.2555 15.7751C89.4155 15.7751 86.8398 18.5147 86.8398 22.1205C86.8398 25.7264 89.4155 28.4659 93.2555 28.4659Z" fill="white" fill-opacity="0.5"/>
<path d="M100.762 28.0911H104.578V16.1028H100.762V28.0911ZM100.762 14.4403H104.578V11.3496H100.762V14.4403Z" fill="white" fill-opacity="0.5"/>
<path d="M106.234 32.0483H110.051V26.8502H110.098C110.847 27.8571 111.948 28.4659 113.493 28.4659C116.63 28.4659 118.714 25.9839 118.714 22.0971C118.714 18.4912 116.771 15.7517 113.587 15.7517C111.948 15.7517 110.777 16.4776 109.957 17.5546H109.887V16.1029H106.234V32.0483ZM112.509 25.5156C110.87 25.5156 109.934 24.181 109.934 22.2376C109.934 20.2941 110.777 18.819 112.439 18.819C114.078 18.819 114.851 20.1771 114.851 22.2376C114.851 24.2746 113.961 25.5156 112.509 25.5156Z" fill="white" fill-opacity="0.5"/>
<path d="M124.928 28.4659C128.065 28.4659 130.384 27.1078 130.384 24.4854C130.384 21.4181 127.902 20.8795 125.794 20.5283C124.272 20.2473 122.914 20.1302 122.914 19.2873C122.914 18.5381 123.64 18.1868 124.577 18.1868C125.63 18.1868 126.356 18.5146 126.497 19.5917H130.009C129.822 17.2268 127.995 15.7517 124.6 15.7517C121.767 15.7517 119.425 17.0629 119.425 19.5917C119.425 22.4015 121.65 22.9634 123.734 23.3146C125.326 23.5956 126.778 23.7127 126.778 24.7898C126.778 25.5624 126.052 25.9839 124.904 25.9839C123.64 25.9839 122.844 25.3985 122.704 24.2044H119.098C119.215 26.8502 121.416 28.4659 124.928 28.4659Z" fill="white" fill-opacity="0.5"/>
<path d="M135.566 28.4421C137.229 28.4421 138.282 27.7864 139.149 26.6157H139.219V28.0908H142.872V16.1025H139.055V22.7991C139.055 24.2274 138.259 25.2108 136.948 25.2108C135.73 25.2108 135.145 24.485 135.145 23.1738V16.1025H131.352V23.9699C131.352 26.6391 132.803 28.4421 135.566 28.4421Z" fill="white" fill-opacity="0.5"/>
<path d="M144.531 28.0912H148.348V21.3712C148.348 19.9429 149.05 18.9361 150.244 18.9361C151.392 18.9361 151.93 19.6854 151.93 20.9732V28.0912H155.747V21.3712C155.747 19.9429 156.426 18.9361 157.643 18.9361C158.791 18.9361 159.329 19.6854 159.329 20.9732V28.0912H163.146V20.2941C163.146 17.6015 161.788 15.7517 159.072 15.7517C157.526 15.7517 156.239 16.4073 155.302 17.859H155.255C154.646 16.5712 153.452 15.7517 151.883 15.7517C150.151 15.7517 149.003 16.5712 148.254 17.8122H148.184V16.1029H144.531V28.0912Z" fill="white" fill-opacity="0.5"/>
<path fill-rule="evenodd" clip-rule="evenodd" d="M9.05116 3.79625C7.65539 4.77221 6.39325 5.92611 5.29759 7.22506C9.77495 6.80938 15.4633 7.48813 22.0674 10.7902C29.1197 14.3163 34.7985 14.4355 38.7507 13.6731C38.3921 12.5874 37.9406 11.5439 37.4058 10.5519C32.8816 11.029 27.0816 10.3974 20.3222 7.01782C16.0299 4.87167 12.2463 3.9876 9.05116 3.79625ZM34.763 6.79018C31.1902 2.79832 25.9981 0.286133 20.2192 0.286133C18.5221 0.286133 16.8755 0.502823 15.3057 0.910016C17.4318 1.49012 19.6903 2.3388 22.0674 3.52737C27.0163 6.00177 31.2888 6.79848 34.763 6.79018ZM39.5957 17.4843C34.821 18.4271 28.2278 18.2334 20.3222 14.2806C12.9314 10.5852 7.04891 10.6318 3.08157 11.5134C2.87679 11.5589 2.67683 11.6067 2.48169 11.6565C1.96227 12.7861 1.54765 13.974 1.25016 15.2076C1.5679 15.1227 1.89623 15.042 2.23499 14.9667C7.04808 13.8971 13.8486 13.9436 22.0674 18.053C29.4583 21.7485 35.3407 21.7019 39.3082 20.8203C39.4441 20.7901 39.578 20.7589 39.7097 20.7267C39.7242 20.4191 39.7314 20.1095 39.7314 19.7983C39.7314 19.0154 39.6853 18.2432 39.5957 17.4843ZM39.0727 24.8445C34.3444 25.6711 27.9431 25.3538 20.3222 21.5435C12.9314 17.8481 7.04891 17.8946 3.08157 18.7763C2.20093 18.9719 1.40873 19.2102 0.70989 19.4618C0.707984 19.5737 0.707031 19.6859 0.707031 19.7983C0.707031 30.5746 9.44292 39.3105 20.2192 39.3105C29.2505 39.3105 36.8487 33.1748 39.0727 24.8445Z" fill="white" fill-opacity="0.5"/>
</g>
<defs>
<clipPath id="clip0_2205_8461">
<rect width="162.927" height="40" fill="white" transform="translate(0.609375)"/>
</clipPath>
</defs>
</svg>
