<svg width="167" height="40" viewBox="0 0 167 40" fill="none" xmlns="http://www.w3.org/2000/svg">
<g clip-path="url(#clip0_2205_8450)">
<path d="M50.7852 28.6077H62.4456V25.0955H54.9295V11.8662H50.7852V28.6077Z" fill="white" fill-opacity="0.5"/>
<path d="M69.3531 26.2666C67.6907 26.2666 66.8244 24.8149 66.8244 22.6374C66.8244 20.4598 67.6907 18.9847 69.3531 18.9847C71.0156 18.9847 71.9053 20.4598 71.9053 22.6374C71.9053 24.8149 71.0156 26.2666 69.3531 26.2666ZM69.3766 28.9827C73.24 28.9827 75.7687 26.2432 75.7687 22.6374C75.7687 19.0315 73.24 16.292 69.3766 16.292C65.5366 16.292 62.9609 19.0315 62.9609 22.6374C62.9609 26.2432 65.5366 28.9827 69.3766 28.9827Z" fill="white" fill-opacity="0.5"/>
<path d="M82.455 32.7525C84.2345 32.7525 85.8033 32.3544 86.8569 31.4178C87.8169 30.5515 88.4491 29.2403 88.4491 27.4373V16.6198H84.7964V17.9076H84.7496C84.0472 16.9008 82.9701 16.2686 81.3779 16.2686C78.4042 16.2686 76.3438 18.7505 76.3438 22.2627C76.3438 25.9388 78.8491 27.9525 81.5418 27.9525C82.9935 27.9525 83.9067 27.3671 84.6091 26.571H84.7028V27.7651C84.7028 29.2168 84.0238 30.0598 82.4081 30.0598C81.1438 30.0598 80.5116 29.5212 80.3008 28.889H76.6013C76.9759 31.3944 79.1535 32.7525 82.455 32.7525ZM82.4316 25.1193C81.0033 25.1193 80.0667 23.9486 80.0667 22.1456C80.0667 20.3193 81.0033 19.1486 82.4316 19.1486C84.0238 19.1486 84.8667 20.5066 84.8667 22.1222C84.8667 23.8081 84.094 25.1193 82.4316 25.1193Z" fill="white" fill-opacity="0.5"/>
<path d="M95.9625 26.2666C94.3001 26.2666 93.4337 24.8149 93.4337 22.6374C93.4337 20.4598 94.3001 18.9847 95.9625 18.9847C97.6249 18.9847 98.5143 20.4598 98.5143 22.6374C98.5143 24.8149 97.6249 26.2666 95.9625 26.2666ZM95.9859 28.9827C99.8489 28.9827 102.378 26.2432 102.378 22.6374C102.378 19.0315 99.8489 16.292 95.9859 16.292C92.1459 16.292 89.5703 19.0315 89.5703 22.6374C89.5703 26.2432 92.1459 28.9827 95.9859 28.9827Z" fill="white" fill-opacity="0.5"/>
<path d="M103.492 28.6077H107.309V16.6194H103.492V28.6077ZM103.492 14.9569H107.309V11.8662H103.492V14.9569Z" fill="white" fill-opacity="0.5"/>
<path d="M108.965 32.5651H112.781V27.3671H112.828C113.578 28.3739 114.678 28.9827 116.223 28.9827C119.361 28.9827 121.445 26.5007 121.445 22.6139C121.445 19.0081 119.501 16.2686 116.317 16.2686C114.678 16.2686 113.507 16.9944 112.688 18.0715H112.618V16.6198H108.965V32.5651ZM115.24 26.0325C113.601 26.0325 112.664 24.6978 112.664 22.7544C112.664 20.811 113.507 19.3359 115.17 19.3359C116.809 19.3359 117.581 20.6939 117.581 22.7544C117.581 24.7915 116.692 26.0325 115.24 26.0325Z" fill="white" fill-opacity="0.5"/>
<path d="M127.658 28.9827C130.796 28.9827 133.114 27.6247 133.114 25.0022C133.114 21.9349 130.632 21.3964 128.525 21.0451C127.003 20.7642 125.645 20.6471 125.645 19.8042C125.645 19.0549 126.371 18.7037 127.307 18.7037C128.361 18.7037 129.087 19.0315 129.227 20.1086H132.739C132.552 17.7437 130.726 16.2686 127.331 16.2686C124.497 16.2686 122.156 17.5798 122.156 20.1086C122.156 22.9183 124.38 23.4803 126.464 23.8315C128.056 24.1125 129.508 24.2295 129.508 25.3066C129.508 26.0793 128.782 26.5008 127.635 26.5008C126.371 26.5008 125.574 25.9154 125.434 24.7212H121.828C121.945 27.3671 124.146 28.9827 127.658 28.9827Z" fill="white" fill-opacity="0.5"/>
<path d="M138.297 28.9596C139.959 28.9596 141.013 28.304 141.879 27.1333H141.949V28.6084H145.602V16.6201H141.785V23.3167C141.785 24.745 140.989 25.7284 139.678 25.7284C138.461 25.7284 137.875 25.0026 137.875 23.6913V16.6201H134.082V24.4874C134.082 27.1567 135.534 28.9596 138.297 28.9596Z" fill="white" fill-opacity="0.5"/>
<path d="M147.262 28.6081H151.078V21.8881C151.078 20.4598 151.781 19.4529 152.975 19.4529C154.122 19.4529 154.661 20.2022 154.661 21.49V28.6081H158.477V21.8881C158.477 20.4598 159.156 19.4529 160.374 19.4529C161.521 19.4529 162.06 20.2022 162.06 21.49V28.6081H165.876V20.811C165.876 18.1183 164.518 16.2686 161.802 16.2686C160.257 16.2686 158.969 16.9242 158.032 18.3759H157.986C157.377 17.0881 156.183 16.2686 154.614 16.2686C152.881 16.2686 151.734 17.0881 150.985 18.329H150.914V16.6198H147.262V28.6081Z" fill="white" fill-opacity="0.5"/>
<path fill-rule="evenodd" clip-rule="evenodd" d="M20.3676 39.3398C31.144 39.3398 39.8798 30.6039 39.8798 19.8276C39.8798 9.05133 31.144 0.31543 20.3676 0.31543C9.59136 0.31543 0.855469 9.05133 0.855469 19.8276C0.855469 30.6039 9.59136 39.3398 20.3676 39.3398ZM23.3793 15.3911C25.0426 13.7278 25.0426 11.0311 23.3793 9.36778C21.716 7.70448 19.0193 7.70448 17.356 9.36778C15.6928 11.0311 15.6928 13.7278 17.356 15.3911L20.3676 18.4027L23.3793 15.3911ZM24.8042 22.8393C26.4675 24.5026 29.1642 24.5026 30.8275 22.8393C32.4907 21.176 32.4907 18.4793 30.8275 16.816C29.1642 15.1528 26.4675 15.1528 24.8042 16.816L21.7926 19.8277L24.8042 22.8393ZM23.3793 30.2875C25.0426 28.6242 25.0426 25.9275 23.3793 24.2642L20.3676 21.2526L17.356 24.2642C15.6928 25.9275 15.6928 28.6242 17.356 30.2875C19.0193 31.9508 21.716 31.9508 23.3793 30.2875ZM9.90779 22.8393C8.24453 21.176 8.24453 18.4793 9.90779 16.816C11.5711 15.1528 14.2678 15.1528 15.9311 16.816L18.9427 19.8277L15.9311 22.8393C14.2678 24.5026 11.5711 24.5026 9.90779 22.8393Z" fill="white" fill-opacity="0.5"/>
</g>
<defs>
<clipPath id="clip0_2205_8450">
<rect width="165.854" height="40" fill="white" transform="translate(0.757812)"/>
</clipPath>
</defs>
</svg>
