<svg width="118" height="27" viewBox="0 0 118 27" fill="none" xmlns="http://www.w3.org/2000/svg">
<g clip-path="url(#clip0_67_987)">
<path fill-rule="evenodd" clip-rule="evenodd" d="M37.4629 2.23038C37.4629 1.3493 38.1849 0.63504 39.0757 0.63504H41.8854C42.5193 0.63504 43.1337 0.852362 43.6239 1.25001L44.4786 1.94331L44.5 1.96259C44.5197 1.95601 44.5395 1.94958 44.5592 1.94331C46.1012 1.45477 47.9721 1.36186 49.8816 1.36186C51.791 1.36186 53.6619 1.45477 55.2039 1.94331C55.2237 1.94958 55.2434 1.95601 55.2631 1.96259L55.2845 1.94331L56.1392 1.25001C56.6294 0.852362 57.2438 0.63504 57.8778 0.63504H60.6874C61.5782 0.63504 62.3002 1.3493 62.3002 2.23038V3.21659C62.3002 3.97962 61.9753 4.70736 61.4051 5.22128L60.7156 5.84273C60.379 6.14612 59.975 6.36692 59.5361 6.48729L59.373 6.53204C60.0119 8.03999 60.3649 9.65187 60.3649 10.9558C60.3649 16.2011 57.0839 18.4664 54.1929 20.4625C51.9163 22.0344 49.8816 23.4392 49.8816 26.0009C49.8816 23.4392 47.8468 22.0344 45.5702 20.4625C42.6793 18.4664 39.3982 16.2011 39.3982 10.9558C39.3982 9.65187 39.7512 8.03999 40.3901 6.53204L40.227 6.48729C39.7882 6.36692 39.3842 6.14612 39.0476 5.84273L38.3581 5.22128C37.7878 4.70736 37.4629 3.97962 37.4629 3.21659V2.23038ZM51.9782 15.244C51.9782 15.4946 51.8678 15.7349 51.6712 15.9122C51.4746 16.0893 51.2079 16.1889 50.9299 16.1889C50.6899 16.1889 50.4583 16.1146 50.273 15.9803C50.5884 16.8155 51.3956 17.6069 52.6234 16.3342C53.7072 15.1518 52.5752 12.6577 51.4723 11.1777C51.1046 10.6844 50.5011 10.447 49.8816 10.447C49.262 10.447 48.6585 10.6844 48.2909 11.1777C47.188 12.6577 46.0559 15.1518 47.1398 16.3342C48.3675 17.6069 49.1748 16.8155 49.4902 15.9803C49.3049 16.1146 49.0733 16.1889 48.8333 16.1889C48.5552 16.1889 48.2885 16.0893 48.0919 15.9122C47.8954 15.7349 47.7849 15.4946 47.7849 15.244H51.9782ZM45.867 7.86123H42.9465L45.2481 9.68421C45.7546 10.0853 46.4949 9.95708 46.8083 9.41393C47.204 8.72817 46.6784 7.86123 45.867 7.86123ZM53.8962 7.86123H56.8167L54.515 9.68421C54.0085 10.0853 53.2682 9.95708 52.9548 9.41393C52.5591 8.72817 53.0847 7.86123 53.8962 7.86123Z" fill="white"/>
<path d="M65.7793 18.6025H68.3666V8.84302H65.7793V18.6025ZM65.7793 7.32107H68.3666V5.00009H65.7793V7.32107Z" fill="white"/>
<path d="M70.0332 21.7986H72.6205V17.4991H72.6586C73.2103 18.3362 74.1044 18.8879 75.4742 18.8879C77.9854 18.8879 79.6976 16.8903 79.6976 13.7323C79.6976 10.6884 78.0425 8.57669 75.4552 8.57669C74.1234 8.57669 73.2103 9.2045 72.5825 10.0606H72.5254V8.84303H70.0332V21.7986ZM74.9225 16.7382C73.3815 16.7382 72.5634 15.5777 72.5634 13.8084C72.5634 12.0582 73.2103 10.6694 74.8273 10.6694C76.4254 10.6694 77.0722 11.963 77.0722 13.8084C77.0722 15.6538 76.2352 16.7382 74.9225 16.7382Z" fill="white"/>
<path d="M84.8588 18.8879C87.2939 18.8879 88.9681 17.7084 88.9681 15.7489C88.9681 13.466 87.1608 13.0094 85.5247 12.6669C84.1359 12.3816 82.8422 12.3055 82.8422 11.4684C82.8422 10.7645 83.5081 10.384 84.5164 10.384C85.6198 10.384 86.2856 10.7645 86.3998 11.8108H88.7398C88.5495 9.85132 87.1227 8.57669 84.5544 8.57669C82.3286 8.57669 80.5783 9.58498 80.5783 11.6967C80.5783 13.8274 82.2905 14.303 84.0408 14.6455C85.3725 14.9118 86.6091 15.0069 86.6091 15.9391C86.6091 16.624 85.9622 17.0616 84.8208 17.0616C83.6603 17.0616 82.8613 16.5669 82.69 15.4445H80.293C80.4452 17.5182 82.0242 18.8879 84.8588 18.8879Z" fill="white"/>
<path d="M98.7918 18.6025V8.84302H96.2044V14.4742C96.2044 15.7679 95.4625 16.6811 94.2449 16.6811C93.1415 16.6811 92.6279 16.0533 92.6279 14.9118V8.84302H90.0596V15.3494C90.0596 17.4801 91.2771 18.8689 93.4459 18.8689C94.8157 18.8689 95.5766 18.3552 96.2425 17.4611H96.2996V18.6025H98.7918Z" fill="white"/>
<path d="M100.466 18.6025H103.053V12.9333C103.053 11.6396 103.757 10.8025 104.803 10.8025C105.755 10.8025 106.306 11.3733 106.306 12.4767V18.6025H108.894V12.9333C108.894 11.6396 109.559 10.8025 110.644 10.8025C111.595 10.8025 112.147 11.3733 112.147 12.4767V18.6025H114.734V12.0391C114.734 9.9084 113.574 8.57669 111.519 8.57669C110.282 8.57669 109.255 9.22352 108.589 10.2889H108.551C108.076 9.26157 107.086 8.57669 105.85 8.57669C104.499 8.57669 103.548 9.26157 103.015 10.1557H102.958V8.84303H100.466V18.6025Z" fill="white"/>
<path d="M0.458008 18.6025H3.04532V5.00009H0.458008V18.6025Z" fill="white"/>
<path d="M9.37201 18.8879C12.3969 18.8879 14.4705 16.643 14.4705 13.7323C14.4705 10.8216 12.3969 8.57669 9.37201 8.57669C6.3471 8.57669 4.27344 10.8216 4.27344 13.7323C4.27344 16.643 6.3471 18.8879 9.37201 18.8879ZM9.37201 16.9094C7.77396 16.9094 6.89883 15.6347 6.89883 13.7323C6.89883 11.8299 7.77396 10.5362 9.37201 10.5362C10.951 10.5362 11.8452 11.8299 11.8452 13.7323C11.8452 15.6347 10.951 16.9094 9.37201 16.9094Z" fill="white"/>
<path d="M19.9724 21.9318C21.4182 21.9318 22.6739 21.5894 23.4919 20.8284C24.2148 20.1625 24.6524 19.2303 24.6524 17.8606V8.84303H22.1602V9.87035H22.1221C21.5324 9.0523 20.6382 8.57669 19.4207 8.57669C16.9475 8.57669 15.1973 10.4411 15.1973 13.3518C15.1973 16.3006 17.328 18.0128 19.4968 18.0128C20.7334 18.0128 21.4753 17.5182 22.046 16.8713H22.1031V17.9367C22.1031 19.2684 21.3992 19.9723 19.9343 19.9723C18.7358 19.9723 18.1841 19.4967 17.9748 18.8879H15.4065C15.6729 20.7903 17.309 21.9318 19.9724 21.9318ZM19.9343 15.9391C18.6026 15.9391 17.7275 14.9689 17.7275 13.3138C17.7275 11.6777 18.6026 10.6503 19.9153 10.6503C21.4753 10.6503 22.2363 11.8679 22.2363 13.2947C22.2363 14.7406 21.5704 15.9391 19.9343 15.9391Z" fill="white"/>
<path d="M30.9413 18.8879C33.9662 18.8879 36.0398 16.643 36.0398 13.7323C36.0398 10.8216 33.9662 8.57669 30.9413 8.57669C27.9164 8.57669 25.8428 10.8216 25.8428 13.7323C25.8428 16.643 27.9164 18.8879 30.9413 18.8879ZM30.9413 16.9094C29.3433 16.9094 28.4681 15.6347 28.4681 13.7323C28.4681 11.8299 29.3433 10.5362 30.9413 10.5362C32.5203 10.5362 33.4145 11.8299 33.4145 13.7323C33.4145 15.6347 32.5203 16.9094 30.9413 16.9094Z" fill="white"/>
<path d="M114.617 6.71227C114.617 6.27448 114.972 5.91959 115.41 5.91959H116.995C117.433 5.91959 117.788 6.27448 117.788 6.71227C117.788 7.15003 117.433 7.50496 116.995 7.50496H115.41C114.972 7.50496 114.617 7.15003 114.617 6.71227Z" fill="white"/>
</g>
<defs>
<clipPath id="clip0_67_987">
<rect width="117.951" height="26" fill="white" transform="translate(0.0244141 0.5)"/>
</clipPath>
</defs>
</svg>
