<svg width="122" height="24" viewBox="0 0 122 24" fill="none" xmlns="http://www.w3.org/2000/svg">
<g clip-path="url(#clip0_67_1000)">
<path fill-rule="evenodd" clip-rule="evenodd" d="M15.7338 7.01118C14.7471 6.3519 13.5871 6 12.4004 6V0C14.7738 0 17.0938 0.703788 19.0672 2.02237C21.0406 3.34094 22.5787 5.21509 23.487 7.40778C24.3952 9.60048 24.6328 12.0133 24.1698 14.3411C23.7068 16.6688 22.5639 18.8071 20.8857 20.4853C19.2075 22.1635 17.0692 23.3064 14.7415 23.7694C12.4137 24.2324 10.0009 23.9948 7.80817 23.0866C5.61547 22.1783 3.74133 20.6402 2.42276 18.6668C1.10418 16.6934 0.400391 14.3734 0.400391 12H6.40039C6.40039 13.1867 6.75229 14.3467 7.41157 15.3334C8.07085 16.3201 9.00793 17.0891 10.1043 17.5433C11.2006 17.9974 12.4071 18.1162 13.5709 17.8847C14.7348 17.6532 15.8039 17.0818 16.6431 16.2427C17.4822 15.4035 18.0536 14.3344 18.2851 13.1705C18.5166 12.0067 18.3978 10.8002 17.9437 9.70392C17.4895 8.60754 16.7205 7.67046 15.7338 7.01118Z" fill="white"/>
<path fill-rule="evenodd" clip-rule="evenodd" d="M6.40039 3.17096e-06C6.40039 0.787934 6.2452 1.56815 5.94367 2.29611C5.64214 3.02406 5.20018 3.68549 4.64303 4.24264C4.08588 4.7998 3.42445 5.24175 2.69649 5.54328C1.96854 5.84481 1.18832 6 0.400391 6L0.400391 12C1.97625 12 3.53668 11.6896 4.99259 11.0866C6.44851 10.4835 7.77139 9.59958 8.88565 8.48526C9.99997 7.371 10.8839 6.04812 11.4869 4.5922C12.09 3.13629 12.4004 1.57586 12.4004 0L6.40039 3.17096e-06Z" fill="white"/>
<path d="M75.7716 8.67151H72.8604V17.9189H75.7716V8.67151Z" fill="white"/>
<path d="M73.1841 6.93997C73.4883 7.24441 73.8687 7.39663 74.3253 7.39663C74.7819 7.39663 75.1563 7.24441 75.4479 6.93997C75.7401 6.62287 75.8859 6.24229 75.8859 5.79832C75.8859 5.34167 75.7401 4.96111 75.4479 4.65668C75.1563 4.35223 74.7819 4.20001 74.3253 4.20001C73.8687 4.20001 73.4883 4.35223 73.1841 4.65668C72.8919 4.96111 72.7461 5.34167 72.7461 5.79832C72.7461 6.24229 72.8919 6.62287 73.1841 6.93997Z" fill="white"/>
<path d="M31.0938 17.9189V4.48541H34.0811V15.2931H40.0368V17.9189H31.0938Z" fill="white"/>
<path fill-rule="evenodd" clip-rule="evenodd" d="M45.4168 18.1282C44.4654 18.1282 43.6028 17.9189 42.829 17.5003C42.0679 17.069 41.4654 16.4855 41.0214 15.7497C40.5775 15.014 40.3555 14.1895 40.3555 13.2761C40.3555 12.3628 40.5775 11.5447 41.0214 10.8216C41.4654 10.0985 42.0679 9.5277 42.829 9.10914C43.5901 8.6778 44.4527 8.46216 45.4168 8.46216C46.3808 8.46216 47.2434 8.6715 48.0045 9.09006C48.7656 9.50868 49.3682 10.0859 49.8121 10.8216C50.2561 11.5447 50.4781 12.3628 50.4781 13.2761C50.4781 14.1895 50.2561 15.014 49.8121 15.7497C49.3682 16.4855 48.7656 17.069 48.0045 17.5003C47.2434 17.9189 46.3808 18.1282 45.4168 18.1282ZM45.4168 15.4834C45.8354 15.4834 46.2032 15.3946 46.5204 15.217C46.8375 15.0267 47.0785 14.7667 47.2434 14.4368C47.421 14.0944 47.5098 13.7074 47.5098 13.2761C47.5098 12.8449 47.421 12.4706 47.2434 12.1535C47.0658 11.8237 46.8185 11.57 46.5013 11.3924C46.1969 11.2021 45.8354 11.107 45.4168 11.107C45.0109 11.107 44.6494 11.2021 44.3322 11.3924C44.0151 11.57 43.7677 11.8237 43.5901 12.1535C43.4125 12.4834 43.3238 12.8639 43.3238 13.2952C43.3238 13.7138 43.4125 14.0944 43.5901 14.4368C43.7677 14.7667 44.0151 15.0267 44.3322 15.217C44.6494 15.3946 45.0109 15.4834 45.4168 15.4834Z" fill="white"/>
<path fill-rule="evenodd" clip-rule="evenodd" d="M52.7841 21.5341C53.5579 21.8893 54.4522 22.0669 55.467 22.0669C56.4564 22.0669 57.3381 21.8702 58.1118 21.477C58.8857 21.0838 59.4945 20.5384 59.9385 19.8407C60.3824 19.143 60.6047 18.3185 60.6047 17.3671V8.67149H57.7503V9.29279C57.538 9.11411 57.2969 8.96411 57.0273 8.84273C56.5325 8.60171 55.968 8.48117 55.3338 8.48117C54.4839 8.48117 53.7291 8.68415 53.0696 9.09005C52.4099 9.48329 51.8898 10.0288 51.5093 10.7264C51.1287 11.4115 50.9385 12.1852 50.9385 13.0478C50.9385 13.8977 51.1287 14.6715 51.5093 15.3692C51.8898 16.0669 52.4099 16.6187 53.0696 17.0246C53.7291 17.4305 54.4839 17.6335 55.3338 17.6335C55.9554 17.6335 56.5199 17.513 57.0273 17.272C57.273 17.1552 57.495 17.0176 57.6932 16.8592V17.4432C57.6932 18.0901 57.4839 18.5912 57.0653 18.9464C56.6594 19.3016 56.0949 19.4791 55.3719 19.4791C54.7884 19.4791 54.2873 19.3777 53.8687 19.1747C53.4628 18.9718 53.0949 18.6736 52.7651 18.2804L50.9765 20.069C51.4205 20.7032 52.023 21.1916 52.7841 21.5341ZM56.9321 14.7793C56.6403 14.9569 56.2916 15.0457 55.8856 15.0457C55.4797 15.0457 55.1245 14.9569 54.8201 14.7793C54.5283 14.6017 54.3 14.3607 54.1351 14.0563C53.9702 13.7392 53.8877 13.403 53.8877 13.0478C53.8877 12.6673 53.9702 12.3248 54.1351 12.0203C54.3 11.7159 54.5346 11.4749 54.8391 11.2973C55.1435 11.1197 55.4924 11.0309 55.8856 11.0309C56.2916 11.0309 56.6403 11.1197 56.9321 11.2973C57.2366 11.4749 57.4649 11.7159 57.6171 12.0203C57.782 12.3248 57.8645 12.6673 57.8645 13.0478C57.8645 13.4284 57.782 13.7708 57.6171 14.0753C57.4649 14.3671 57.2366 14.6017 56.9321 14.7793Z" fill="white"/>
<path fill-rule="evenodd" clip-rule="evenodd" d="M66.7305 18.1282C65.7789 18.1282 64.9161 17.9189 64.1427 17.5003C63.3813 17.069 62.7789 16.4855 62.3349 15.7497C61.8909 15.014 61.6689 14.1895 61.6689 13.2761C61.6689 12.3628 61.8909 11.5447 62.3349 10.8216C62.7789 10.0985 63.3813 9.5277 64.1427 9.10914C64.9035 8.6778 65.7663 8.46216 66.7305 8.46216C67.6941 8.46216 68.5569 8.6715 69.3177 9.09006C70.0791 9.50868 70.6815 10.0859 71.1255 10.8216C71.5695 11.5447 71.7915 12.3628 71.7915 13.2761C71.7915 14.1895 71.5695 15.014 71.1255 15.7497C70.6815 16.4855 70.0791 17.069 69.3177 17.5003C68.5569 17.9189 67.6941 18.1282 66.7305 18.1282ZM66.7305 15.4834C67.1487 15.4834 67.5165 15.3946 67.8339 15.217C68.1507 15.0267 68.3919 14.7667 68.5569 14.4368C68.7345 14.0944 68.8233 13.7074 68.8233 13.2761C68.8233 12.8449 68.7345 12.4706 68.5569 12.1535C68.3793 11.8237 68.1321 11.57 67.8147 11.3924C67.5105 11.2021 67.1487 11.107 66.7305 11.107C66.3243 11.107 65.9625 11.2021 65.6457 11.3924C65.3283 11.57 65.0811 11.8237 64.9035 12.1535C64.7259 12.4834 64.6371 12.8639 64.6371 13.2952C64.6371 13.7138 64.7259 14.0944 64.9035 14.4368C65.0811 14.7667 65.3283 15.0267 65.6457 15.217C65.9625 15.3946 66.3243 15.4834 66.7305 15.4834Z" fill="white"/>
<path fill-rule="evenodd" clip-rule="evenodd" d="M82.7688 18.1091C82.1478 18.1091 81.5766 17.9886 81.0564 17.7476C80.7828 17.6208 80.5356 17.4694 80.3148 17.2933V21.8195H77.4414V8.67149H80.3526V9.30971C80.5638 9.13697 80.7984 8.98763 81.0564 8.86175C81.5766 8.60801 82.1478 8.48117 82.7688 8.48117C83.6442 8.48117 84.4182 8.69051 85.0902 9.10913C85.7754 9.52769 86.3082 10.0985 86.6886 10.8216C87.0822 11.5447 87.2784 12.3692 87.2784 13.2952C87.2784 14.2212 87.0822 15.0457 86.6886 15.7688C86.3082 16.4918 85.7754 17.0626 85.0902 17.4812C84.4182 17.8999 83.6442 18.1091 82.7688 18.1091ZM82.2366 15.4833C82.6548 15.4833 83.0166 15.3882 83.3208 15.1979C83.6382 15.0077 83.8854 14.7476 84.063 14.4178C84.2406 14.088 84.3294 13.7138 84.3294 13.2952C84.3294 12.8639 84.2406 12.4834 84.063 12.1535C83.8854 11.8237 83.6382 11.57 83.3208 11.3924C83.0166 11.2021 82.6614 11.107 82.2552 11.107C81.8496 11.107 81.4878 11.2021 81.171 11.3924C80.8662 11.57 80.6256 11.8237 80.448 12.1535C80.2704 12.4834 80.1816 12.8639 80.1816 13.2952C80.1816 13.7138 80.2638 14.088 80.4288 14.4178C80.6064 14.7476 80.8536 15.0077 81.171 15.1979C81.4878 15.3882 81.843 15.4833 82.2366 15.4833Z" fill="white"/>
<path d="M90.1275 17.9379C90.6603 18.0775 91.1991 18.1472 91.7445 18.1472C92.8989 18.1472 93.8121 17.8808 94.4847 17.348C95.1693 16.8153 95.5119 16.0986 95.5119 15.1979C95.5119 14.6144 95.4045 14.1451 95.1885 13.7899C94.9731 13.4221 94.6941 13.1303 94.3515 12.9146C94.0089 12.699 93.6471 12.5277 93.2667 12.4009C92.8863 12.274 92.5245 12.1662 92.1825 12.0774C91.8399 11.9886 91.5609 11.8871 91.3449 11.7729C91.1295 11.6588 91.0215 11.5066 91.0215 11.3163C91.0215 11.1387 91.1043 11.0055 91.2687 10.9167C91.4337 10.8152 91.6809 10.7645 92.0109 10.7645C92.3535 10.7645 92.7021 10.8343 93.0573 10.9738C93.4251 11.1133 93.7551 11.3544 94.0467 11.6969L95.7021 10.0225C95.2839 9.48965 94.7385 9.09005 94.0659 8.82371C93.4065 8.54465 92.6835 8.40509 91.8969 8.40509C91.1487 8.40509 90.4953 8.53193 89.9373 8.78561C89.3787 9.03935 88.9473 9.38819 88.6431 9.83213C88.3389 10.2634 88.1865 10.7772 88.1865 11.3734C88.1865 11.9315 88.2945 12.3946 88.5099 12.7624C88.7253 13.1176 89.0049 13.3967 89.3469 13.5996C89.6895 13.8026 90.0513 13.9612 90.4317 14.0753C90.8121 14.1895 91.1739 14.2973 91.5165 14.3988C91.8585 14.4876 92.1381 14.5954 92.3535 14.7223C92.5821 14.8364 92.6961 15.0077 92.6961 15.236C92.6961 15.4136 92.6007 15.5531 92.4105 15.6546C92.2329 15.7561 91.9731 15.8068 91.6305 15.8068C91.1355 15.8068 90.6789 15.718 90.2607 15.5404C89.8419 15.3502 89.4801 15.0901 89.1759 14.7603L87.5205 16.4347C87.8379 16.7772 88.2183 17.0817 88.6623 17.348C89.1189 17.6017 89.6073 17.7983 90.1275 17.9379Z" fill="white"/>
<path d="M100.821 18.1282C99.9718 18.1282 99.217 17.9569 98.5576 17.6144C97.9102 17.2592 97.4032 16.7772 97.0354 16.1683C96.667 15.5468 96.4834 14.8364 96.4834 14.0372V8.67151H99.3946V13.9992C99.3946 14.3163 99.445 14.5891 99.547 14.8174C99.661 15.0457 99.826 15.2233 100.041 15.3502C100.257 15.477 100.517 15.5404 100.821 15.5404C101.253 15.5404 101.595 15.4072 101.849 15.1408C102.103 14.8618 102.23 14.4812 102.23 13.9992V8.67151H105.141V14.0182C105.141 14.8301 104.957 15.5468 104.589 16.1683C104.221 16.7772 103.714 17.2592 103.067 17.6144C102.42 17.9569 101.672 18.1282 100.821 18.1282Z" fill="white"/>
<path d="M109.499 8.67149H106.588V17.9189H109.499V12.515C109.499 12.1979 109.563 11.9315 109.689 11.7159C109.829 11.5003 110.013 11.3353 110.241 11.2212C110.47 11.0943 110.73 11.0309 111.021 11.0309C111.44 11.0309 111.789 11.1641 112.068 11.4305C112.36 11.6842 112.506 12.0457 112.506 12.515V17.9189H115.417V12.515C115.417 12.1979 115.48 11.9315 115.607 11.7159C115.747 11.5003 115.93 11.3353 116.159 11.2212C116.387 11.0943 116.647 11.0309 116.939 11.0309C117.358 11.0309 117.706 11.1641 117.985 11.4305C118.277 11.6842 118.423 12.0457 118.423 12.515V17.9189H121.335V12.1916C121.335 11.4178 121.17 10.7582 120.84 10.2127C120.522 9.65453 120.085 9.22961 119.527 8.93789C118.981 8.63339 118.353 8.48117 117.643 8.48117C116.92 8.48117 116.266 8.63975 115.683 8.95691C115.304 9.15893 114.973 9.41969 114.689 9.73913C114.424 9.40499 114.103 9.13157 113.723 8.91881C113.216 8.62709 112.639 8.48117 111.992 8.48117C111.307 8.48117 110.692 8.62709 110.146 8.91881C109.909 9.04019 109.693 9.18557 109.499 9.35495V8.67149Z" fill="white"/>
</g>
<defs>
<clipPath id="clip0_67_1000">
<rect width="121.2" height="24" fill="white" transform="translate(0.400391)"/>
</clipPath>
</defs>
</svg>
