<svg width="110" height="22" viewBox="0 0 110 22" fill="none" xmlns="http://www.w3.org/2000/svg">
<g clip-path="url(#clip0_67_865)">
<path d="M33.0498 16.6635V5.46558H35.1614V14.7439H40.2804V16.6635H33.0498Z" fill="white"/>
<path d="M44.8399 16.8874C44.0507 16.8874 43.3415 16.7274 42.7123 16.4074C42.083 16.0875 41.5871 15.6236 41.2245 15.0157C40.862 14.4078 40.6807 13.6773 40.6807 12.8241V12.5681C40.6807 11.715 40.862 10.9844 41.2245 10.3765C41.5871 9.76865 42.083 9.30472 42.7123 8.98476C43.3415 8.66486 44.0507 8.50488 44.8399 8.50488C45.6291 8.50488 46.3383 8.66486 46.9675 8.98476C47.5967 9.30472 48.0926 9.76865 48.4553 10.3765C48.8178 10.9844 48.9991 11.715 48.9991 12.5681V12.8241C48.9991 13.6773 48.8178 14.4078 48.4553 15.0157C48.0926 15.6236 47.5967 16.0875 46.9675 16.4074C46.3383 16.7274 45.6291 16.8874 44.8399 16.8874ZM44.8399 15.0957C45.4584 15.0957 45.9704 14.8984 46.3756 14.5038C46.7809 14.0985 46.9835 13.5226 46.9835 12.7761V12.6161C46.9835 11.8696 46.7809 11.299 46.3756 10.9044C45.981 10.4992 45.4691 10.2965 44.8399 10.2965C44.2214 10.2965 43.7094 10.4992 43.3042 10.9044C42.8989 11.299 42.6963 11.8696 42.6963 12.6161V12.7761C42.6963 13.5226 42.8989 14.0985 43.3042 14.5038C43.7094 14.8984 44.2214 15.0957 44.8399 15.0957Z" fill="white"/>
<path d="M49.7559 12.7281V12.4722C49.7559 11.6403 49.9211 10.9311 50.2518 10.3445C50.5824 9.74733 51.0196 9.29406 51.5635 8.98476C52.1181 8.66486 52.7206 8.50488 53.3712 8.50488C54.0964 8.50488 54.6456 8.63283 55.0189 8.88878C55.3922 9.14474 55.6641 9.41135 55.8347 9.68862H56.1227V8.7288H58.1064V18.0711C58.1064 18.6151 57.9464 19.0469 57.6264 19.3669C57.3065 19.6975 56.8799 19.8628 56.3466 19.8628H51.0356V18.1031H55.6428C55.9414 18.1031 56.0907 17.9432 56.0907 17.6232V15.5596H55.8028C55.6961 15.7302 55.5468 15.9062 55.3549 16.0875C55.1629 16.2581 54.907 16.4021 54.587 16.5194C54.267 16.6367 53.8618 16.6954 53.3712 16.6954C52.7206 16.6954 52.1181 16.5407 51.5635 16.2315C51.0196 15.9115 50.5824 15.4583 50.2518 14.8717C49.9211 14.2745 49.7559 13.5599 49.7559 12.7281ZM53.9471 14.9357C54.5657 14.9357 55.0829 14.7384 55.4988 14.3438C55.9148 13.9492 56.1227 13.3947 56.1227 12.6801V12.5202C56.1227 11.7949 55.9148 11.2404 55.4988 10.8564C55.0935 10.4619 54.5763 10.2645 53.9471 10.2645C53.3285 10.2645 52.8113 10.4619 52.3954 10.8564C51.9794 11.2404 51.7715 11.7949 51.7715 12.5202V12.6801C51.7715 13.3947 51.9794 13.9492 52.3954 14.3438C52.8113 14.7384 53.3285 14.9357 53.9471 14.9357Z" fill="white"/>
<path d="M63.3966 16.8874C62.6074 16.8874 61.8982 16.7274 61.2689 16.4074C60.6397 16.0875 60.1438 15.6236 59.7813 15.0157C59.4187 14.4078 59.2373 13.6773 59.2373 12.8241V12.5681C59.2373 11.715 59.4187 10.9844 59.7813 10.3765C60.1438 9.76865 60.6397 9.30472 61.2689 8.98476C61.8982 8.66486 62.6074 8.50488 63.3966 8.50488C64.1858 8.50488 64.8949 8.66486 65.5242 8.98476C66.1534 9.30472 66.6493 9.76865 67.012 10.3765C67.3746 10.9844 67.5558 11.715 67.5558 12.5681V12.8241C67.5558 13.6773 67.3746 14.4078 67.012 15.0157C66.6493 15.6236 66.1534 16.0875 65.5242 16.4074C64.8949 16.7274 64.1858 16.8874 63.3966 16.8874ZM63.3966 15.0957C64.0152 15.0957 64.5271 14.8984 64.9323 14.5038C65.3376 14.0985 65.5402 13.5226 65.5402 12.7761V12.6161C65.5402 11.8696 65.3376 11.299 64.9323 10.9044C64.5377 10.4992 64.0258 10.2965 63.3966 10.2965C62.778 10.2965 62.2662 10.4992 61.8609 10.9044C61.4556 11.299 61.253 11.8696 61.253 12.6161V12.7761C61.253 13.5226 61.4556 14.0985 61.8609 14.5038C62.2662 14.8984 62.778 15.0957 63.3966 15.0957Z" fill="white"/>
<path d="M68.6961 16.6641V8.72948H70.7119V16.6641H68.6961ZM69.7041 7.8017C69.3411 7.8017 69.0324 7.68434 68.7759 7.4497C68.5309 7.21512 68.4082 6.90581 68.4082 6.52189C68.4082 6.13797 68.5309 5.82869 68.7759 5.59406C69.0324 5.35944 69.3411 5.24213 69.7041 5.24213C70.0774 5.24213 70.3868 5.35944 70.6315 5.59406C70.8769 5.82869 71 6.13797 71 6.52189C71 6.90581 70.8769 7.21512 70.6315 7.4497C70.3868 7.68434 70.0774 7.8017 69.7041 7.8017Z" fill="white"/>
<path d="M72.2266 19.8628V8.7288H74.21V9.68862H74.4981C74.6789 9.37938 74.9614 9.10741 75.3458 8.87276C75.7294 8.62753 76.2787 8.50488 76.9937 8.50488C77.6331 8.50488 78.225 8.66486 78.7688 8.98476C79.3133 9.29406 79.7506 9.75263 80.0806 10.3605C80.4113 10.9684 80.5769 11.7043 80.5769 12.5681V12.8241C80.5769 13.6879 80.4113 14.4238 80.0806 15.0317C79.7506 15.6396 79.3133 16.1035 78.7688 16.4234C78.225 16.7327 77.6331 16.8874 76.9937 16.8874C76.5138 16.8874 76.1082 16.8287 75.7775 16.7114C75.4578 16.6047 75.1966 16.4661 74.9938 16.2954C74.8019 16.1141 74.6472 15.9328 74.5297 15.7515H74.2416V19.8628H72.2266ZM76.3853 15.1276C77.015 15.1276 77.532 14.9304 77.9369 14.5358C78.3529 14.1305 78.5612 13.544 78.5612 12.7761V12.6161C78.5612 11.8483 78.3529 11.2671 77.9369 10.8724C77.521 10.4671 77.004 10.2645 76.3853 10.2645C75.7672 10.2645 75.2495 10.4671 74.8336 10.8724C74.4176 11.2671 74.21 11.8483 74.21 12.6161V12.7761C74.21 13.544 74.4176 14.1305 74.8336 14.5358C75.2495 14.9304 75.7672 15.1276 76.3853 15.1276Z" fill="white"/>
<path d="M85.0022 16.8874C83.9675 16.8874 83.1199 16.6634 82.4585 16.2155C81.7978 15.7676 81.3977 15.1276 81.2588 14.2958L83.1143 13.8159C83.1893 14.1892 83.3117 14.4824 83.4829 14.6958C83.6637 14.909 83.8823 15.0637 84.1387 15.1597C84.4048 15.245 84.6929 15.2876 85.0022 15.2876C85.4718 15.2876 85.8183 15.2077 86.0417 15.0477C86.2659 14.877 86.3779 14.6691 86.3779 14.4238C86.3779 14.1785 86.2714 13.9919 86.0582 13.8639C85.8444 13.7253 85.5034 13.6133 85.0345 13.528L84.5863 13.4479C84.0315 13.3413 83.5255 13.1973 83.0669 13.0161C82.6077 12.8241 82.2399 12.5628 81.9628 12.2322C81.6857 11.9016 81.5469 11.475 81.5469 10.9525C81.5469 10.1632 81.8349 9.56068 82.411 9.14474C82.9865 8.71815 83.7441 8.50488 84.6825 8.50488C85.5674 8.50488 86.3037 8.70213 86.8901 9.09675C87.4765 9.49138 87.8602 10.0086 88.0417 10.6485L86.1703 11.2244C86.085 10.8191 85.909 10.5312 85.6423 10.3605C85.3859 10.1899 85.0662 10.1046 84.6825 10.1046C84.2982 10.1046 84.0053 10.1739 83.8025 10.3125C83.5997 10.4405 83.4987 10.6218 83.4987 10.8564C83.4987 11.1124 83.6052 11.3044 83.8184 11.4323C84.0315 11.5496 84.3195 11.6403 84.6825 11.7043L85.1301 11.7843C85.7275 11.8909 86.2659 12.0349 86.7457 12.2162C87.2366 12.3869 87.6202 12.6374 87.898 12.9681C88.1853 13.288 88.3297 13.7253 88.3297 14.2798C88.3297 15.1117 88.0259 15.7569 87.4181 16.2155C86.8207 16.6634 86.0156 16.8874 85.0022 16.8874Z" fill="white"/>
<path d="M92.4001 16.7909C91.7813 16.7909 91.2375 16.6523 90.7679 16.375C90.3094 16.0871 89.9526 15.6924 89.6961 15.1912C89.4404 14.6899 89.3125 14.1141 89.3125 13.4635V8.72833H91.3283V13.3035C91.3283 13.9007 91.4719 14.3486 91.76 14.6473C92.0584 14.9459 92.4798 15.0952 93.0236 15.0952C93.6424 15.0952 94.1223 14.8926 94.4633 14.4873C94.8049 14.0714 94.9754 13.4955 94.9754 12.7596V8.72833H96.9912V16.6629H95.0071V15.6231H94.7197C94.5918 15.8897 94.3512 16.151 93.9999 16.407C93.6479 16.6629 93.1144 16.7909 92.4001 16.7909Z" fill="white"/>
<path d="M98.5137 16.6648V8.73024H100.497V9.59408H100.785C100.924 9.32747 101.154 9.09819 101.473 8.90624C101.793 8.70356 102.214 8.60229 102.737 8.60229C103.302 8.60229 103.756 8.71429 104.097 8.93821C104.438 9.15154 104.699 9.4341 104.881 9.7861H105.169C105.35 9.44483 105.606 9.16219 105.937 8.93821C106.267 8.71429 106.736 8.60229 107.344 8.60229C107.835 8.60229 108.278 8.70893 108.672 8.92226C109.077 9.12486 109.397 9.43946 109.632 9.86606C109.877 10.282 110 10.8099 110 11.4498V16.6648H107.984V11.5937C107.984 11.1565 107.872 10.8312 107.648 10.6179C107.424 10.394 107.109 10.282 106.705 10.282C106.246 10.282 105.888 10.4313 105.633 10.7299C105.387 11.0178 105.265 11.4338 105.265 11.9776V16.6648H103.249V11.5937C103.249 11.1565 103.137 10.8312 102.913 10.6179C102.689 10.394 102.375 10.282 101.969 10.282C101.51 10.282 101.153 10.4313 100.897 10.7299C100.652 11.0178 100.529 11.4338 100.529 11.9776V16.6648H98.5137Z" fill="white"/>
<path d="M26.662 10.6649C26.662 7.83641 25.5383 5.1237 23.5383 3.12364C21.5382 1.12357 18.8255 -6.06642e-05 15.997 -6.10352e-05C13.1685 -6.14061e-05 10.4558 1.12357 8.45574 3.12364C6.45566 5.1237 5.33203 7.83641 5.33203 10.6649H8.66488C9.76928 10.6649 10.6306 9.73941 11.0351 8.71173C11.3007 8.03702 11.7037 7.41696 12.2263 6.89426C13.2264 5.89423 14.5827 5.33242 15.997 5.33242C17.4113 5.33242 18.7676 5.89423 19.7677 6.89426C20.7677 7.89429 21.3295 9.25066 21.3295 10.6649H26.662Z" fill="white"/>
<path d="M20.5175 14.7461C21.0535 13.4521 21.3294 12.0653 21.3294 10.6648H26.6613C26.6613 16.5549 21.8864 21.3297 15.9963 21.3297C15.0739 21.3297 14.1788 21.2126 13.3252 20.9925C13.8082 20.8681 14.2829 20.7096 14.7457 20.5179C16.0397 19.9819 17.2153 19.1964 18.2057 18.2061C19.196 17.2157 19.9816 16.04 20.5175 14.7461Z" fill="white"/>
<path d="M0 10.6648C-2.0036e-07 12.0654 0.275857 13.4522 0.811821 14.7461C1.34779 16.0401 2.13336 17.2158 3.1237 18.2061C4.11403 19.1964 5.28973 19.982 6.58366 20.518C7.87758 21.054 9.26441 21.3298 10.665 21.3298C12.0655 21.3298 13.4523 21.054 14.7463 20.518C16.0402 19.982 17.2159 19.1964 18.2062 18.2061C19.1966 17.2158 19.9821 16.0401 20.5181 14.7461C21.0541 13.4522 21.33 12.0654 21.33 10.6648H17.9971C16.8927 10.6648 16.0314 11.5903 15.6269 12.6179C15.6154 12.6472 15.6036 12.6764 15.5915 12.7055C15.3235 13.3524 14.9308 13.9403 14.4356 14.4355C13.9404 14.9306 13.3526 15.3234 12.7056 15.5914C12.0587 15.8594 11.3653 15.9973 10.665 15.9973C9.96469 15.9973 9.27128 15.8594 8.62434 15.5914C7.97734 15.3234 7.38952 14.9306 6.89432 14.4355C6.39916 13.9403 6.00638 13.3524 5.7384 12.7055C5.47041 12.0585 5.33248 11.3651 5.33248 10.6648H0Z" fill="white"/>
<path d="M0.000976562 10.665C0.000976562 4.77485 4.77583 0 10.6659 0C11.5881 0 12.483 0.117044 13.3365 0.337097C11.5051 0.808892 9.8156 1.76368 8.45552 3.1237C6.45546 5.12375 5.33184 7.83647 5.33184 10.665H0.000976562Z" fill="white"/>
</g>
<defs>
<clipPath id="clip0_67_865">
<rect width="110" height="22" fill="white"/>
</clipPath>
</defs>
</svg>
