<svg width="114" height="31" viewBox="0 0 114 31" fill="none" xmlns="http://www.w3.org/2000/svg">
<path d="M33.4375 10.1514H36.1889V21.2943H33.4375V10.1514ZM37.2861 17.1029C37.2861 14.3429 39.0004 12.6886 41.5718 12.6886C44.1432 12.6886 45.8575 14.3429 45.8575 17.1029C45.8575 19.8629 44.2032 21.5343 41.5718 21.5343C38.9404 21.5343 37.2861 19.9229 37.2861 17.1029ZM43.1318 17.1029C43.1318 15.5857 42.5404 14.6943 41.5975 14.6943C40.6546 14.6943 40.0718 15.5514 40.0718 17.1029C40.0718 18.6543 40.6546 19.5029 41.5975 19.5029C42.5404 19.5029 43.1489 18.6543 43.1489 17.1114L43.1318 17.1029ZM46.9546 21.8686H49.6118C49.7327 22.1546 49.944 22.3933 50.2133 22.548C50.4826 22.7028 50.7952 22.7652 51.1032 22.7257C52.1575 22.7257 52.7061 22.16 52.7061 21.32V19.7771H52.7146C52.4876 20.2576 52.1204 20.6579 51.6615 20.9257C51.2025 21.1935 50.6732 21.316 50.1432 21.2771C48.1289 21.2771 46.7918 19.7429 46.7918 17.1029C46.7918 14.4629 48.0689 12.8171 50.2204 12.8171C50.7639 12.7881 51.3031 12.9282 51.7636 13.2184C52.2241 13.5085 52.5833 13.9343 52.7918 14.4371H52.7146V12.8857H55.4404V21.2343C55.4404 23.2486 53.6575 24.5086 51.0346 24.5086C48.6518 24.5 47.1261 23.4114 46.9718 21.8771L46.9546 21.8686ZM52.7146 17.1029C52.7146 15.7571 52.0975 14.9086 51.1204 14.9086C50.1432 14.9086 49.5432 15.7657 49.5432 17.1029C49.5432 18.44 50.1346 19.2286 51.1204 19.2286C52.1061 19.2286 52.7146 18.5 52.7146 17.1029ZM56.5289 17.1029C56.5289 14.3429 58.2432 12.6886 60.8146 12.6886C63.3861 12.6886 65.1004 14.3429 65.1004 17.1029C65.1004 19.8629 63.4375 21.5343 60.8146 21.5343C58.1918 21.5343 56.5461 19.9229 56.5461 17.1029H56.5289ZM62.3746 17.1029C62.3746 15.5857 61.7746 14.6943 60.8404 14.6943C59.9061 14.6943 59.3146 15.5514 59.3146 17.1029C59.3146 18.6543 59.8975 19.5029 60.8404 19.5029C61.7832 19.5029 62.3918 18.6543 62.3918 17.1114L62.3746 17.1029ZM66.2146 10.8543C66.2026 10.574 66.2748 10.2965 66.4218 10.0577C66.5688 9.81869 66.784 9.62926 67.0396 9.51363C67.2952 9.39791 67.5795 9.3614 67.856 9.40871C68.1325 9.45594 68.3885 9.58486 68.5912 9.77883C68.7938 9.97289 68.9338 10.223 68.9931 10.4972C69.0523 10.7714 69.0282 11.0571 68.9238 11.3174C68.8194 11.5778 68.6395 11.801 68.4072 11.9583C68.1749 12.1156 67.9009 12.1997 67.6204 12.2C67.4411 12.2045 67.2627 12.1734 67.0955 12.1085C66.9284 12.0436 66.7757 11.946 66.6466 11.8217C66.5174 11.6973 66.4142 11.5485 66.343 11.3838C66.2718 11.2193 66.234 11.0422 66.2318 10.8629L66.2146 10.8543ZM66.2146 12.8771H69.0004V21.3286H66.2575L66.2146 12.8771ZM79.0204 17.1029C79.0204 19.8543 77.7861 21.4486 75.6861 21.4486C75.1485 21.4817 74.6136 21.3491 74.1538 21.0686C73.6939 20.7881 73.3312 20.3732 73.1146 19.88H73.0632V24.0457H70.3118V12.9029H73.0461V14.4114H73.0975C73.3066 13.9085 73.6658 13.4823 74.1259 13.1909C74.5861 12.8994 75.1249 12.757 75.6689 12.7829C77.8289 12.7657 79.0718 14.3514 79.0718 17.1114L79.0204 17.1029ZM76.2175 17.1029C76.2175 15.7657 75.5918 14.9 74.6232 14.9C73.6546 14.9 73.0461 15.7571 73.0375 17.1029C73.0289 18.4486 73.6546 19.2971 74.6232 19.2971C75.5918 19.2971 76.2689 18.5 76.2689 17.1114L76.2175 17.1029ZM83.7175 12.68C86.0232 12.68 87.4546 13.7686 87.4718 15.5171H84.9604C84.9604 14.9086 84.4546 14.5314 83.7004 14.5314C82.9461 14.5314 82.5861 14.8229 82.5861 15.26C82.5861 15.6971 82.9032 15.8343 83.5375 15.9629L85.3032 16.3229C87.0175 16.6829 87.7032 17.3686 87.7032 18.6457C87.7032 20.36 86.1175 21.5257 83.7604 21.5257C81.4032 21.5257 79.8689 20.3943 79.7575 18.6714H82.4232C82.5004 19.2971 82.9975 19.6657 83.8032 19.6657C84.6089 19.6657 84.9861 19.4086 84.9861 18.9543C84.9861 18.5 84.7289 18.4229 84.0689 18.2857L82.4746 17.9514C80.8204 17.6 79.9546 16.7343 79.9546 15.44C80.0061 13.76 81.4461 12.6886 83.7689 12.6886L83.7175 12.68ZM96.9175 21.32H94.2518V19.7343H94.2004C94.0512 20.2632 93.7264 20.7255 93.2789 21.0449C92.8315 21.3643 92.2889 21.5218 91.7404 21.4914C91.3264 21.5049 90.9132 21.4307 90.5301 21.2735C90.1469 21.1163 89.8006 20.8799 89.5152 20.5796C89.2289 20.2793 89.0104 19.9219 88.8724 19.5311C88.7344 19.1402 88.6804 18.7245 88.7146 18.3114V12.8857H91.4661V17.72C91.4661 18.7143 91.9889 19.2543 92.8461 19.2543C93.0475 19.2527 93.2455 19.2081 93.4281 19.1234C93.6106 19.0386 93.7726 18.9157 93.9029 18.763C94.0341 18.6102 94.1309 18.4312 94.1867 18.238C94.2415 18.0447 94.2552 17.8418 94.2261 17.6429V12.8857H96.9689L96.9175 21.32ZM98.2461 12.8771H100.92V14.5057H100.98C101.128 13.984 101.445 13.526 101.88 13.2034C102.317 12.8808 102.847 12.7118 103.389 12.7229C103.933 12.6755 104.476 12.8329 104.91 13.1642C105.344 13.4955 105.639 13.9769 105.738 14.5143H105.858C106.029 13.974 106.373 13.5055 106.839 13.1816C107.303 12.8576 107.863 12.6964 108.429 12.7229C108.805 12.7085 109.181 12.7739 109.53 12.9145C109.879 13.0551 110.195 13.2679 110.456 13.539C110.718 13.8101 110.918 14.1333 111.046 14.4875C111.174 14.8416 111.226 15.2188 111.198 15.5943V21.3286H108.429V16.2971C108.429 15.44 108.026 14.96 107.246 14.96C107.073 14.9572 106.901 14.9918 106.743 15.0614C106.584 15.1311 106.444 15.2342 106.329 15.3636C106.214 15.4931 106.128 15.6458 106.078 15.8114C106.028 15.977 106.014 16.1514 106.037 16.3229V21.3286H103.415V16.2714C103.415 15.4143 102.995 14.96 102.24 14.96C102.066 14.9586 101.892 14.9946 101.733 15.0656C101.573 15.1367 101.43 15.241 101.314 15.3717C101.198 15.5024 101.112 15.6564 101.06 15.8234C101.008 15.9905 100.992 16.1666 101.015 16.34V21.3286H98.2632L98.2461 12.8771Z" fill="white"/>
<path d="M27.9946 10.88C27.9947 9.17402 27.4795 7.50779 26.5166 6.09955C25.5537 4.69132 24.1878 3.60673 22.5981 2.98787C21.0083 2.36901 19.2687 2.24472 17.6071 2.63129C15.9455 3.01785 14.4394 3.89724 13.286 5.15428H2.58887V27.7314H25.1746V17.18C26.061 16.3871 26.7704 15.4162 27.2563 14.3307C27.7422 13.2451 27.9938 12.0694 27.9946 10.88ZM23.6489 10.88C23.6506 11.6974 23.4097 12.4971 22.9568 13.1776C22.5038 13.8581 21.8592 14.389 21.1044 14.703C20.3496 15.0171 19.5187 15.1001 18.7167 14.9416C17.9147 14.7832 17.1778 14.3904 16.5991 13.813C16.0204 13.2355 15.6262 12.4994 15.4661 11.6977C15.3059 10.8961 15.3873 10.0649 15.6997 9.30953C16.0121 8.5541 16.5417 7.90835 17.2212 7.45401C17.9009 6.99966 18.7 6.75714 19.5174 6.75713C20.6117 6.75713 21.6612 7.19123 22.4357 7.96417C23.2103 8.73711 23.6466 9.78576 23.6489 10.88ZM20.8288 23.3857H6.93458V9.49999H11.1688C11.0871 9.95556 11.044 10.4172 11.0403 10.88C11.0426 13.1276 11.9364 15.2824 13.5257 16.8718C15.115 18.461 17.2698 19.3549 19.5174 19.3571C19.9569 19.3548 20.3954 19.3175 20.8288 19.2457V23.3857Z" fill="white"/>
</svg>
