<svg width="135" height="25" viewBox="0 0 135 25" fill="none" xmlns="http://www.w3.org/2000/svg">
<g clip-path="url(#clip0_67_975)">
<path d="M9.6954 20.6621C7.12112 23.2364 2.76125 23.2261 1.54366 19.7952C1.30528 19.1234 1.11468 18.4328 0.974491 17.728C0.402118 14.8504 0.69588 11.8678 1.81863 9.15724C2.94138 6.44672 4.84269 4.12997 7.28213 2.49998C9.72161 0.87 12.5896 -1.25677e-07 15.5235 0C18.4574 1.25677e-07 21.3254 0.87 23.7648 2.49998C26.2043 4.12997 28.1056 6.44672 29.2283 9.15733C30.3511 11.8678 30.6448 14.8504 30.0725 17.728C29.9323 18.4328 29.7417 19.1234 29.5032 19.7952C28.2857 23.2261 23.9258 23.2364 21.3515 20.6621L17.3777 16.6883C16.9981 16.3086 17.0373 15.6825 17.142 15.1559C17.2057 14.8359 17.173 14.5041 17.0481 14.2025C16.9232 13.9009 16.7117 13.6432 16.4403 13.4619C16.1689 13.2806 15.8499 13.1838 15.5235 13.1838C15.1971 13.1838 14.8781 13.2806 14.6067 13.4619C14.3352 13.6432 14.1238 13.9009 13.9989 14.2025C13.8739 14.5041 13.8413 14.8359 13.905 15.1559C14.0097 15.6825 14.0489 16.3086 13.6692 16.6883L9.6954 20.6621Z" fill="white"/>
<path d="M42.4258 17.1006H46.4131V19.4503H39.3818V6.95416H42.4258V17.1006Z" fill="white"/>
<path d="M51.8532 19.5928C50.8801 19.5928 50.0019 19.3851 49.2186 18.9697C48.4473 18.5544 47.8361 17.961 47.3852 17.1897C46.9461 16.4183 46.7266 15.5164 46.7266 14.4839C46.7266 13.4634 46.952 12.5673 47.4029 11.796C47.854 11.0128 48.471 10.4135 49.2542 9.99811C50.0375 9.58276 50.9157 9.37509 51.8888 9.37509C52.8619 9.37509 53.7401 9.58276 54.5233 9.99811C55.3066 10.4135 55.9236 11.0128 56.3746 11.796C56.8255 12.5673 57.051 13.4634 57.051 14.4839C57.051 15.5045 56.8196 16.4064 56.3568 17.1897C55.9059 17.961 55.2829 18.5544 54.4877 18.9697C53.7045 19.3851 52.8263 19.5928 51.8532 19.5928ZM51.8532 16.9582C52.4347 16.9582 52.9272 16.7447 53.3307 16.3174C53.746 15.8902 53.9537 15.2791 53.9537 14.4839C53.9537 13.6888 53.7519 13.0777 53.3485 12.6504C52.9568 12.2232 52.4703 12.0096 51.8888 12.0096C51.2954 12.0096 50.8029 12.2232 50.4113 12.6504C50.0197 13.0658 49.8239 13.6769 49.8239 14.4839C49.8239 15.2791 50.0138 15.8902 50.3935 16.3174C50.7852 16.7447 51.2717 16.9582 51.8532 16.9582Z" fill="white"/>
<path d="M61.9053 9.37509C62.6055 9.37509 63.2167 9.51751 63.7389 9.80233C64.2728 10.0871 64.6823 10.461 64.9671 10.9237V9.51751H68.011V19.4325C68.011 20.3463 67.8271 21.1711 67.4592 21.9068C67.1032 22.6545 66.5514 23.2478 65.8038 23.6869C65.068 24.126 64.1483 24.3456 63.0446 24.3456C61.5731 24.3456 60.3804 23.9955 59.4666 23.2953C58.5529 22.607 58.0307 21.6695 57.9002 20.4828H60.9085C61.0034 20.8625 61.229 21.1592 61.585 21.3728C61.9409 21.5983 62.3801 21.711 62.9022 21.711C63.5312 21.711 64.0296 21.5271 64.3975 21.1592C64.7772 20.8032 64.9671 20.2277 64.9671 19.4325V18.0263C64.6704 18.4891 64.261 18.8689 63.7389 19.1655C63.2167 19.4503 62.6055 19.5928 61.9053 19.5928C61.0865 19.5928 60.3448 19.3851 59.6802 18.9697C59.0157 18.5425 58.4876 17.9432 58.096 17.1718C57.7163 16.3886 57.5264 15.4867 57.5264 14.4661C57.5264 13.4455 57.7163 12.5496 58.096 11.7782C58.4876 11.0068 59.0157 10.4135 59.6802 9.99811C60.3448 9.58276 61.0865 9.37509 61.9053 9.37509ZM64.9671 14.4839C64.9671 13.7244 64.7535 13.1251 64.3263 12.686C63.9109 12.247 63.4006 12.0274 62.7954 12.0274C62.1902 12.0274 61.674 12.247 61.2467 12.686C60.8314 13.1133 60.6237 13.7066 60.6237 14.4661C60.6237 15.2256 60.8314 15.8309 61.2467 16.2818C61.674 16.7209 62.1902 16.9404 62.7954 16.9404C63.4006 16.9404 63.9109 16.7209 64.3263 16.2818C64.7535 15.8427 64.9671 15.2435 64.9671 14.4839Z" fill="white"/>
<path d="M74.2009 19.5928C73.2278 19.5928 72.3496 19.3851 71.5664 18.9697C70.795 18.5544 70.1838 17.961 69.7328 17.1897C69.2938 16.4183 69.0742 15.5164 69.0742 14.4839C69.0742 13.4634 69.2996 12.5673 69.7507 11.796C70.2016 11.0128 70.8187 10.4135 71.6019 9.99811C72.3852 9.58276 73.2634 9.37509 74.2365 9.37509C75.2096 9.37509 76.0878 9.58276 76.8709 9.99811C77.6542 10.4135 78.2713 11.0128 78.7222 11.796C79.1732 12.5673 79.3987 13.4634 79.3987 14.4839C79.3987 15.5045 79.1673 16.4064 78.7045 17.1897C78.2535 17.961 77.6305 18.5544 76.8353 18.9697C76.0521 19.3851 75.174 19.5928 74.2009 19.5928ZM74.2009 16.9582C74.7823 16.9582 75.2748 16.7447 75.6784 16.3174C76.0937 15.8902 76.3014 15.2791 76.3014 14.4839C76.3014 13.6888 76.0996 13.0777 75.6961 12.6504C75.3045 12.2232 74.8179 12.0096 74.2365 12.0096C73.6431 12.0096 73.1506 12.2232 72.759 12.6504C72.3674 13.0658 72.1715 13.6769 72.1715 14.4839C72.1715 15.2791 72.3615 15.8902 72.7412 16.3174C73.1328 16.7447 73.6194 16.9582 74.2009 16.9582Z" fill="white"/>
<path d="M82.01 8.48505C81.476 8.48505 81.0369 8.33077 80.6928 8.02223C80.3605 7.70182 80.1943 7.3102 80.1943 6.84738C80.1943 6.37269 80.3605 5.98107 80.6928 5.67252C81.0369 5.3521 81.476 5.19189 82.01 5.19189C82.5322 5.19189 82.9594 5.3521 83.2917 5.67252C83.6358 5.98107 83.8079 6.37269 83.8079 6.84738C83.8079 7.3102 83.6358 7.70182 83.2917 8.02223C82.9594 8.33077 82.5322 8.48505 82.01 8.48505ZM83.523 9.51752V19.4504H80.4792V9.51752H83.523Z" fill="white"/>
<path d="M88.239 10.9237C88.5356 10.461 88.9451 10.0871 89.4675 9.80233C89.9899 9.51751 90.6011 9.37509 91.3011 9.37509C92.1201 9.37509 92.8614 9.58276 93.5261 9.99811C94.1907 10.4135 94.7132 11.0068 95.0925 11.7782C95.4839 12.5496 95.6804 13.4455 95.6804 14.4661C95.6804 15.4867 95.4839 16.3886 95.0925 17.1718C94.7132 17.9432 94.1907 18.5425 93.5261 18.9697C92.8614 19.3851 92.1201 19.5928 91.3011 19.5928C90.6123 19.5928 90.002 19.4504 89.4675 19.1655C88.9451 18.8807 88.5356 18.5129 88.239 18.0619V24.1854H85.1953V9.51751H88.239V10.9237ZM92.583 14.4661C92.583 13.7066 92.3692 13.1133 91.9416 12.686C91.5261 12.247 91.0106 12.0274 90.3933 12.0274C89.7882 12.0274 89.2718 12.247 88.8442 12.686C88.4295 13.1251 88.2218 13.7244 88.2218 14.4839C88.2218 15.2435 88.4295 15.8427 88.8442 16.2818C89.2718 16.7209 89.7882 16.9404 90.3933 16.9404C90.9985 16.9404 91.5149 16.7209 91.9416 16.2818C92.3692 15.8309 92.583 15.2256 92.583 14.4661Z" fill="white"/>
<path d="M100.783 19.5928C99.9166 19.5928 99.1451 19.4444 98.4684 19.1478C97.7925 18.851 97.258 18.4476 96.8666 17.9372C96.4752 17.4151 96.2554 16.8336 96.208 16.1928H99.2166C99.252 16.5369 99.4123 16.8158 99.6968 17.0294C99.9821 17.243 100.332 17.3498 100.748 17.3498C101.127 17.3498 101.417 17.2786 101.619 17.1362C101.833 16.982 101.94 16.7861 101.94 16.5488C101.94 16.264 101.792 16.0563 101.495 15.9258C101.199 15.7834 100.717 15.6291 100.053 15.4629C99.3408 15.2968 98.7477 15.1247 98.2727 14.9467C97.7985 14.7569 97.389 14.4661 97.0451 14.0745C96.7002 13.671 96.5287 13.131 96.5287 12.4547C96.5287 11.885 96.683 11.3688 96.9916 10.906C97.3115 10.4313 97.7744 10.0574 98.3796 9.78449C98.9968 9.51156 99.727 9.37509 100.569 9.37509C101.815 9.37509 102.794 9.68363 103.506 10.3007C104.23 10.9179 104.646 11.7366 104.753 12.7572H101.94C101.892 12.4131 101.738 12.1402 101.477 11.9384C101.228 11.7366 100.896 11.6358 100.48 11.6358C100.124 11.6358 99.8511 11.707 99.6615 11.8494C99.4718 11.9799 99.377 12.1639 99.377 12.4012C99.377 12.686 99.5253 12.8997 99.8218 13.0421C100.13 13.1845 100.605 13.3269 101.246 13.4692C101.981 13.6591 102.58 13.8491 103.043 14.0389C103.506 14.2169 103.91 14.5135 104.254 14.929C104.61 15.3324 104.794 15.8783 104.806 16.5666C104.806 17.1481 104.64 17.6703 104.307 18.1331C103.987 18.5841 103.518 18.9401 102.901 19.2011C102.296 19.4622 101.59 19.5928 100.783 19.5928Z" fill="white"/>
<path d="M115.943 9.51749V19.4503H112.899V18.0975C112.591 18.5365 112.169 18.8926 111.636 19.1655C111.113 19.4266 110.532 19.5571 109.891 19.5571C109.131 19.5571 108.461 19.391 107.88 19.0587C107.298 18.7146 106.847 18.2221 106.527 17.5813C106.206 16.9404 106.046 16.1869 106.046 15.3205V9.51749H109.072V14.9111C109.072 15.5757 109.244 16.0919 109.588 16.4598C109.932 16.8277 110.395 17.0116 110.977 17.0116C111.57 17.0116 112.039 16.8277 112.383 16.4598C112.727 16.0919 112.899 15.5757 112.899 14.9111V9.51749H115.943Z" fill="white"/>
<path d="M130.27 9.41068C131.503 9.41068 132.483 9.78447 133.207 10.5321C133.942 11.2797 134.31 12.3181 134.31 13.6472V19.4503H131.285V14.0567C131.285 13.4158 131.112 12.9233 130.768 12.5792C130.435 12.2232 129.973 12.0452 129.379 12.0452C128.786 12.0452 128.317 12.2232 127.973 12.5792C127.641 12.9233 127.475 13.4158 127.475 14.0567V19.4503H124.448V14.0567C124.448 13.4158 124.277 12.9233 123.933 12.5792C123.6 12.2232 123.137 12.0452 122.544 12.0452C121.951 12.0452 121.482 12.2232 121.138 12.5792C120.805 12.9233 120.64 13.4158 120.64 14.0567V19.4503H117.596V9.51749H120.64V10.7635C120.948 10.3482 121.352 10.0218 121.85 9.78447C122.348 9.53524 122.912 9.41068 123.541 9.41068C124.289 9.41068 124.953 9.57085 125.535 9.89128C126.128 10.2117 126.591 10.6686 126.923 11.262C127.267 10.716 127.736 10.271 128.329 9.92688C128.922 9.58274 129.57 9.41068 130.27 9.41068Z" fill="white"/>
</g>
<defs>
<clipPath id="clip0_67_975">
<rect width="133.621" height="25" fill="white" transform="translate(0.689453)"/>
</clipPath>
</defs>
</svg>
