<svg width="118" height="22" viewBox="0 0 118 22" fill="none" xmlns="http://www.w3.org/2000/svg">
<g clip-path="url(#clip0_67_957)">
<path d="M28.6152 0.934753H31.5447V16.9134H36.3649V19.5766H28.6152V0.934753Z" fill="white"/>
<path d="M41.9005 19.8428C40.4624 19.8428 39.3617 19.4345 38.5982 18.6178C37.8348 17.8011 37.4531 16.6471 37.4531 15.1557V5.35551C37.4531 3.86416 37.8348 2.71014 38.5982 1.89346C39.3617 1.07677 40.4624 0.668427 41.9005 0.668427C43.3386 0.668427 44.4393 1.07677 45.2028 1.89346C45.9662 2.71014 46.3479 3.86416 46.3479 5.35551V15.1557C46.3479 16.6471 45.9662 17.8011 45.2028 18.6178C44.4393 19.4345 43.3386 19.8428 41.9005 19.8428ZM41.9005 17.1797C42.9125 17.1797 43.4185 16.5672 43.4185 15.3421V5.16908C43.4185 3.94405 42.9125 3.33153 41.9005 3.33153C40.8885 3.33153 40.3825 3.94405 40.3825 5.16908V15.3421C40.3825 16.5672 40.8885 17.1797 41.9005 17.1797Z" fill="white"/>
<path d="M52.4828 19.8428C51.0624 19.8428 49.9794 19.4434 49.2337 18.6444C48.4881 17.8278 48.1152 16.6648 48.1152 15.1557V5.35551C48.1152 3.84641 48.4881 2.69239 49.2337 1.89346C49.9794 1.07677 51.0624 0.668427 52.4828 0.668427C53.9031 0.668427 54.9861 1.07677 55.7317 1.89346C56.4774 2.69239 56.8503 3.84641 56.8503 5.35551V6.95337H54.0806V5.16908C54.0806 3.94405 53.5746 3.33153 52.5626 3.33153C51.5507 3.33153 51.0447 3.94405 51.0447 5.16908V15.3688C51.0447 16.5761 51.5507 17.1797 52.5626 17.1797C53.5746 17.1797 54.0806 16.5761 54.0806 15.3688V11.7203H52.6159V9.05725H56.8503V15.1557C56.8503 16.6648 56.4774 17.8278 55.7317 18.6444C54.9861 19.4434 53.9031 19.8428 52.4828 19.8428Z" fill="white"/>
<path d="M62.9659 19.8428C61.5279 19.8428 60.4271 19.4345 59.6637 18.6178C58.9003 17.8011 58.5186 16.6471 58.5186 15.1557V5.35551C58.5186 3.86416 58.9003 2.71014 59.6637 1.89346C60.4271 1.07677 61.5279 0.668427 62.9659 0.668427C64.4041 0.668427 65.5048 1.07677 66.2682 1.89346C67.0317 2.71014 67.4134 3.86416 67.4134 5.35551V15.1557C67.4134 16.6471 67.0317 17.8011 66.2682 18.6178C65.5048 19.4345 64.4041 19.8428 62.9659 19.8428ZM62.9659 17.1797C63.9779 17.1797 64.4839 16.5672 64.4839 15.3421V5.16908C64.4839 3.94405 63.9779 3.33153 62.9659 3.33153C61.954 3.33153 61.448 3.94405 61.448 5.16908V15.3421C61.448 16.5672 61.954 17.1797 62.9659 17.1797Z" fill="white"/>
<path d="M69.4004 0.934753H72.3298V19.5766H69.4004V0.934753Z" fill="white"/>
<path d="M74.5234 0.934753H78.8376C80.2933 0.934753 81.3852 1.32534 82.1134 2.10652C82.8416 2.8877 83.2054 4.03284 83.2054 5.54193V7.37947C83.2054 8.8886 82.8416 10.0337 82.1134 10.8149C81.3852 11.5961 80.2933 11.9866 78.8376 11.9866H77.4531V19.5766H74.5234V0.934753ZM78.8376 9.32354C79.3172 9.32354 79.6722 9.19036 79.9032 8.92409C80.1518 8.65774 80.2757 8.20506 80.2757 7.56588V5.35552C80.2757 4.71637 80.1518 4.26364 79.9032 3.99733C79.6722 3.73102 79.3172 3.59787 78.8376 3.59787H77.4531V9.32354H78.8376Z" fill="white"/>
<path d="M88.7078 19.8428C87.288 19.8428 86.2137 19.4434 85.4855 18.6444C84.758 17.8278 84.3936 16.6648 84.3936 15.1557V14.0905H87.1634V15.3688C87.1634 16.5761 87.6694 17.1797 88.6814 17.1797C89.1786 17.1797 89.5511 17.0377 89.7997 16.7537C90.0659 16.4518 90.1994 15.9724 90.1994 15.3155C90.1994 14.5344 90.0219 13.8508 89.667 13.265C89.312 12.6613 88.655 11.9423 87.6958 11.1078C86.4887 10.0426 85.6454 9.08387 85.1658 8.23166C84.6869 7.36171 84.4471 6.38524 84.4471 5.30224C84.4471 3.82865 84.8196 2.69239 85.5654 1.89346C86.3112 1.07677 87.3944 0.668427 88.8148 0.668427C90.217 0.668427 91.2737 1.07677 91.9836 1.89346C92.7118 2.69239 93.0755 3.84641 93.0755 5.35551V6.12781H90.3057V5.16908C90.3057 4.52994 90.1818 4.06833 89.9332 3.78427C89.6846 3.48245 89.3208 3.33153 88.8412 3.33153C87.8644 3.33153 87.3768 3.9263 87.3768 5.11582C87.3768 5.79047 87.5542 6.42075 87.9092 7.00663C88.2817 7.59249 88.9476 8.30265 89.9068 9.13711C91.1314 10.2023 91.9748 11.17 92.4368 12.0399C92.898 12.9099 93.129 13.9307 93.129 15.1025C93.129 16.6294 92.747 17.8011 91.9836 18.6178C91.2378 19.4345 90.1458 19.8428 88.7078 19.8428Z" fill="white"/>
<path d="M99.0699 19.8428C97.6494 19.8428 96.5663 19.4434 95.8205 18.6444C95.0747 17.8278 94.7021 16.6649 94.7021 15.1557V0.934753H97.6318V15.3688C97.6318 16.0079 97.7557 16.4696 98.0043 16.7537C98.2705 17.0377 98.6438 17.1797 99.1227 17.1797C99.6023 17.1797 99.966 17.0377 100.215 16.7537C100.481 16.4696 100.614 16.0079 100.614 15.3688V0.934753H103.437V15.1557C103.437 16.6649 103.064 17.8278 102.319 18.6444C101.573 19.4434 100.49 19.8428 99.0699 19.8428Z" fill="white"/>
<path d="M105.523 0.934753H109.705L111.569 14.2769H111.622L113.487 0.934753H117.667V19.5766H114.898V5.46205H114.845L112.714 19.5766H110.264L108.133 5.46205H108.081V19.5766H105.523V0.934753Z" fill="white"/>
<path d="M0.333984 19.5765C3.93794 19.5765 6.85948 16.6549 6.85948 13.051C6.85948 9.44708 3.93794 6.52551 0.333984 6.52551V11.0933C1.41516 11.0933 2.29162 11.9698 2.29162 13.051C2.29162 14.1322 1.41516 15.0087 0.333984 15.0087V19.5765Z" fill="white"/>
<path d="M22.0855 8.7007C20.9704 8.34745 19.783 8.15686 18.5509 8.15686C12.0938 8.15686 6.85938 13.3914 6.85938 19.8484C6.85938 20.4965 6.91212 21.1323 7.01351 21.7517H14.2778C14.0185 21.1703 13.8743 20.5262 13.8743 19.8484C13.8743 17.2656 15.9681 15.1718 18.5509 15.1718C19.9625 15.1718 21.2281 15.7972 22.0855 16.7861V8.7007Z" fill="white"/>
<path d="M1.48145 0C2.02245 4.89408 6.17169 8.70071 11.21 8.70071C16.2482 8.70071 20.3975 4.89408 20.9385 0H13.9384C13.5063 1.08335 12.4475 1.84889 11.21 1.84889C9.97241 1.84889 8.9137 1.08335 8.48147 0H1.48145Z" fill="white"/>
</g>
<defs>
<clipPath id="clip0_67_957">
<rect width="117.333" height="22" fill="white" transform="translate(0.333984)"/>
</clipPath>
</defs>
</svg>
