<svg width="108" height="26" viewBox="0 0 108 26" fill="none" xmlns="http://www.w3.org/2000/svg">
<g clip-path="url(#clip0_67_905)">
<path d="M32.7119 18.5939H40.2912V16.3109H35.4058V7.71191H32.7119V18.5939Z" fill="white"/>
<path d="M44.7809 17.073C43.7003 17.073 43.1372 16.1294 43.1372 14.714C43.1372 13.2986 43.7003 12.3398 44.7809 12.3398C45.8615 12.3398 46.4398 13.2986 46.4398 14.714C46.4398 16.1294 45.8615 17.073 44.7809 17.073ZM44.7961 18.8385C47.3073 18.8385 48.951 17.0578 48.951 14.714C48.951 12.3702 47.3073 10.5895 44.7961 10.5895C42.3001 10.5895 40.626 12.3702 40.626 14.714C40.626 17.0578 42.3001 18.8385 44.7961 18.8385Z" fill="white"/>
<path d="M53.2975 21.2871C54.4542 21.2871 55.4739 21.0284 56.1588 20.4196C56.7828 19.8565 57.1937 19.0042 57.1937 17.8323V10.8009H54.8194V11.638H54.789C54.3324 10.9835 53.6323 10.5726 52.5974 10.5726C50.6645 10.5726 49.3252 12.1859 49.3252 14.4688C49.3252 16.8583 50.9537 18.1671 52.7039 18.1671C53.6475 18.1671 54.2411 17.7867 54.6977 17.2692H54.7586V18.0454C54.7586 18.989 54.3172 19.5369 53.2671 19.5369C52.4452 19.5369 52.0343 19.1868 51.8973 18.7759H49.4926C49.7361 20.4044 51.1515 21.2871 53.2975 21.2871ZM53.2823 16.3256C52.3539 16.3256 51.7451 15.5646 51.7451 14.3927C51.7451 13.2056 52.3539 12.4446 53.2823 12.4446C54.3172 12.4446 54.8651 13.3273 54.8651 14.3775C54.8651 15.4733 54.3629 16.3256 53.2823 16.3256Z" fill="white"/>
<path d="M62.0768 17.073C60.9962 17.073 60.4331 16.1294 60.4331 14.714C60.4331 13.2986 60.9962 12.3398 62.0768 12.3398C63.1574 12.3398 63.7355 13.2986 63.7355 14.714C63.7355 16.1294 63.1574 17.073 62.0768 17.073ZM62.092 18.8385C64.603 18.8385 66.2467 17.0578 66.2467 14.714C66.2467 12.3702 64.603 10.5895 62.092 10.5895C59.596 10.5895 57.9219 12.3702 57.9219 14.714C57.9219 17.0578 59.596 18.8385 62.092 18.8385Z" fill="white"/>
<path d="M66.9707 18.5939H69.4515V10.8015H66.9707V18.5939ZM66.9707 9.72089H69.4515V7.71191H66.9707V9.72089Z" fill="white"/>
<path d="M70.5283 21.1654H73.0091V17.7867H73.0395C73.5266 18.4411 74.2419 18.8368 75.2464 18.8368C77.2858 18.8368 78.6403 17.2235 78.6403 14.6971C78.6403 12.3533 77.3771 10.5726 75.3072 10.5726C74.2419 10.5726 73.4809 11.0444 72.9482 11.7445H72.9026V10.8009H70.5283V21.1654ZM74.6071 16.9191C73.5418 16.9191 72.933 16.0516 72.933 14.7884C72.933 13.5252 73.4809 12.5664 74.5615 12.5664C75.6269 12.5664 76.1291 13.4491 76.1291 14.7884C76.1291 16.1125 75.5508 16.9191 74.6071 16.9191Z" fill="white"/>
<path d="M82.6793 18.8368C84.7187 18.8368 86.2255 17.9541 86.2255 16.2495C86.2255 14.2557 84.6122 13.9057 83.2424 13.6774C82.2532 13.4947 81.3704 13.4187 81.3704 12.8707C81.3704 12.3837 81.8422 12.1554 82.451 12.1554C83.1359 12.1554 83.6077 12.3685 83.699 13.0686H85.9819C85.8602 11.5314 84.6731 10.5726 82.4662 10.5726C80.6247 10.5726 79.1027 11.4249 79.1027 13.0686C79.1027 14.8949 80.5486 15.2602 81.9031 15.4885C82.938 15.6711 83.8816 15.7472 83.8816 16.4473C83.8816 16.9496 83.4098 17.2235 82.6641 17.2235C81.8422 17.2235 81.3248 16.843 81.2335 16.0668H78.8896C78.9657 17.7866 80.3964 18.8368 82.6793 18.8368Z" fill="white"/>
<path d="M89.595 18.8235C90.6756 18.8235 91.3604 18.3973 91.9236 17.6364H91.9692V18.5952H94.3435V10.8028H91.8627V15.1556C91.8627 16.084 91.3452 16.7232 90.4929 16.7232C89.7015 16.7232 89.321 16.2514 89.321 15.3991V10.8028H86.8555V15.9166C86.8555 17.6516 87.7991 18.8235 89.595 18.8235Z" fill="white"/>
<path d="M95.4229 18.5933H97.9036V14.2253C97.9036 13.2969 98.3602 12.6425 99.1364 12.6425C99.8822 12.6425 100.232 13.1295 100.232 13.9666V18.5933H102.713V14.2253C102.713 13.2969 103.154 12.6425 103.946 12.6425C104.692 12.6425 105.042 13.1295 105.042 13.9666V18.5933H107.522V13.5252C107.522 11.7749 106.64 10.5726 104.874 10.5726C103.87 10.5726 103.033 10.9987 102.424 11.9424H102.393C101.998 11.1053 101.221 10.5726 100.202 10.5726C99.0755 10.5726 98.3298 11.1053 97.8428 11.9119H97.7971V10.8009H95.4229V18.5933Z" fill="white"/>
<path fill-rule="evenodd" clip-rule="evenodd" d="M12.9417 25.5723C19.9463 25.5723 25.6246 19.8939 25.6246 12.8894C25.6246 5.88479 19.9463 0.206451 12.9417 0.206451C5.93712 0.206451 0.258789 5.88479 0.258789 12.8894C0.258789 19.8939 5.93712 25.5723 12.9417 25.5723ZM14.8993 10.0056C15.9804 8.92448 15.9804 7.17163 14.8993 6.09048C13.8181 5.00933 12.0653 5.00933 10.9841 6.09048C9.90305 7.17163 9.90305 8.92448 10.9841 10.0056L12.9417 11.9632L14.8993 10.0056ZM15.8255 14.847C16.9066 15.9281 18.6595 15.9281 19.7406 14.847C20.8217 13.7658 20.8217 12.013 19.7406 10.9318C18.6595 9.85071 16.9066 9.85071 15.8255 10.9318L13.8679 12.8894L15.8255 14.847ZM14.8993 19.6883C15.9804 18.6071 15.9804 16.8543 14.8993 15.7731L12.9417 13.8156L10.9841 15.7731C9.90305 16.8543 9.90305 18.6071 10.9841 19.6883C12.0653 20.7694 13.8181 20.7694 14.8993 19.6883ZM6.1428 14.847C5.06168 13.7658 5.06168 12.013 6.1428 10.9318C7.22397 9.85071 8.97682 9.85071 10.058 10.9318L12.0155 12.8894L10.058 14.847C8.97682 15.9281 7.22397 15.9281 6.1428 14.847Z" fill="white"/>
</g>
<defs>
<clipPath id="clip0_67_905">
<rect width="107.805" height="26" fill="white" transform="translate(0.194336)"/>
</clipPath>
</defs>
</svg>
