<svg width="114" height="22" viewBox="0 0 114 22" fill="none" xmlns="http://www.w3.org/2000/svg">
<g clip-path="url(#clip0_67_880)">
<path d="M63.6191 15.9507H66.0439V6.80466H63.6191V15.9507ZM63.6191 5.3784H66.0439V3.20331H63.6191V5.3784Z" fill="white"/>
<path d="M67.6064 18.9491H70.0312V14.9199H70.0666C70.5834 15.7043 71.4217 16.2214 72.705 16.2214C75.0586 16.2214 76.6633 14.3494 76.6633 11.3898C76.6633 8.53722 75.1121 6.55826 72.6874 6.55826C71.4394 6.55826 70.5835 7.14664 69.9953 7.94889H69.9418V6.80786H67.6064V18.9491ZM72.1882 14.2067C70.7441 14.2067 69.9776 13.1192 69.9776 11.4611C69.9776 9.82089 70.5834 8.51944 72.0992 8.51944C73.5968 8.51944 74.2026 9.73177 74.2026 11.4611C74.2026 13.1905 73.4185 14.2067 72.1882 14.2067Z" fill="white"/>
<path d="M81.4993 16.2214C83.7815 16.2214 85.3504 15.116 85.3504 13.2796C85.3504 11.1402 83.6567 10.7123 82.1233 10.3914C80.8217 10.124 79.6096 10.0527 79.6096 9.26824C79.6096 8.60857 80.2336 8.252 81.1784 8.252C82.2127 8.252 82.8367 8.60857 82.9433 9.58913H85.1361C84.9583 7.7528 83.6209 6.55826 81.2143 6.55826C79.1281 6.55826 77.488 7.5032 77.488 9.48217C77.488 11.479 79.0927 11.9247 80.7328 12.2456C81.9808 12.4952 83.1393 12.5843 83.1393 13.4579C83.1393 14.0998 82.5335 14.5098 81.4639 14.5098C80.3761 14.5098 79.6273 14.0463 79.4671 12.9944H77.2207C77.3632 14.9377 78.8431 16.2214 81.4993 16.2214Z" fill="white"/>
<path d="M94.5563 15.9515V6.80539H92.1315V12.0827C92.1315 13.295 91.4363 14.1508 90.2954 14.1508C89.2611 14.1508 88.7801 13.5624 88.7801 12.4927V6.80539H86.373V12.9028C86.373 14.8996 87.5139 16.2011 89.5466 16.2011C90.8305 16.2011 91.5434 15.7197 92.1674 14.8818H92.221V15.9515H94.5563Z" fill="white"/>
<path d="M96.124 15.9539H98.5488V10.641C98.5488 9.42866 99.2087 8.64424 100.189 8.64424C101.081 8.64424 101.598 9.17906 101.598 10.2131V15.9539H104.022V10.641C104.022 9.42866 104.646 8.64424 105.662 8.64424C106.554 8.64424 107.071 9.17906 107.071 10.2131V15.9539H109.496V9.80306C109.496 7.80626 108.408 6.55826 106.482 6.55826C105.324 6.55826 104.361 7.16442 103.737 8.16282H103.701C103.256 7.20009 102.329 6.55826 101.17 6.55826C99.9039 6.55826 99.0126 7.20009 98.5134 8.03802H98.4599V6.80786H96.124V15.9539Z" fill="white"/>
<path d="M0.422852 15.9507H2.84753V3.20331H0.422852V15.9507Z" fill="white"/>
<path d="M8.77613 16.2214C11.6109 16.2214 13.5541 14.1176 13.5541 11.3898C13.5541 8.66202 11.6109 6.55826 8.77613 6.55826C5.94135 6.55826 3.99805 8.66202 3.99805 11.3898C3.99805 14.1176 5.94135 16.2214 8.77613 16.2214ZM8.77613 14.3672C7.27853 14.3672 6.45838 13.1727 6.45838 11.3898C6.45838 9.60697 7.27853 8.39464 8.77613 8.39464C10.2559 8.39464 11.0938 9.60697 11.0938 11.3898C11.0938 13.1727 10.2559 14.3672 8.77613 14.3672Z" fill="white"/>
<path d="M18.7103 19.0739C20.0653 19.0739 21.242 18.753 22.0086 18.0399C22.6861 17.4159 23.0962 16.5423 23.0962 15.2586V6.80786H20.7606V7.77064H20.725C20.1722 7.004 19.3343 6.55826 18.1933 6.55826C15.8756 6.55826 14.2354 8.30546 14.2354 11.0332C14.2354 13.7967 16.2322 15.4012 18.2646 15.4012C19.4234 15.4012 20.1188 14.9377 20.6536 14.3315H20.7071V15.3299C20.7071 16.5779 20.0474 17.2376 18.6746 17.2376C17.5514 17.2376 17.0344 16.7919 16.8383 16.2214H14.4314C14.681 18.0042 16.2143 19.0739 18.7103 19.0739ZM18.6746 13.4579C17.4266 13.4579 16.6066 12.5487 16.6066 10.9976C16.6066 9.46433 17.4266 8.5016 18.6568 8.5016C20.1188 8.5016 20.8319 9.64264 20.8319 10.9798C20.8319 12.3347 20.2079 13.4579 18.6746 13.4579Z" fill="white"/>
<path d="M28.99 16.2214C31.8247 16.2214 33.7681 14.1176 33.7681 11.3898C33.7681 8.66202 31.8247 6.55826 28.99 6.55826C26.1553 6.55826 24.2119 8.66202 24.2119 11.3898C24.2119 14.1176 26.1553 16.2214 28.99 16.2214ZM28.99 14.3672C27.4924 14.3672 26.6723 13.1727 26.6723 11.3898C26.6723 9.60697 27.4924 8.39464 28.99 8.39464C30.4698 8.39464 31.3077 9.60697 31.3077 11.3898C31.3077 13.1727 30.4698 14.3672 28.99 14.3672Z" fill="white"/>
<path d="M110.377 5.30374C110.377 4.89347 110.71 4.56088 111.12 4.56088H112.606C113.016 4.56088 113.349 4.89347 113.349 5.30374C113.349 5.71401 113.016 6.0466 112.606 6.0466H111.12C110.71 6.0466 110.377 5.71401 110.377 5.30374Z" fill="white"/>
<path fill-rule="evenodd" clip-rule="evenodd" d="M48.4723 0.599945C54.2158 0.599945 58.8724 5.25619 58.8724 10.9999C58.8724 16.7437 54.2158 21.3999 48.4723 21.3999C42.7285 21.3999 38.0723 16.7437 38.0723 10.9999C38.0723 5.25619 42.7285 0.599945 48.4723 0.599945ZM48.0964 1.37817C46.9099 1.54514 45.7801 2.49851 44.9031 4.09299C44.6488 4.5555 44.4192 5.06646 44.2192 5.61817C45.4117 5.31851 46.7216 5.14184 48.0964 5.11452V1.37817ZM43.3402 5.86796C43.589 5.08733 43.8932 4.36911 44.2444 3.73068C44.6791 2.94025 45.1951 2.25768 45.7764 1.73343C42.6153 2.65146 40.1238 5.14308 39.2057 8.30411C39.73 7.7228 40.4125 7.20686 41.203 6.77214C41.8414 6.42098 42.5596 6.11668 43.3402 5.86796ZM43.0905 6.74692C42.7908 7.93938 42.6142 9.24931 42.5868 10.624H38.8504C39.0174 9.43755 39.9708 8.3078 41.5653 7.43087C42.0278 7.17649 42.5388 6.94696 43.0905 6.74692ZM43.3388 10.624C43.3698 9.12378 43.5858 7.71531 43.9432 6.47085C45.1876 6.1135 46.5961 5.8975 48.0964 5.86645V7.49036C47.5367 8.92317 46.3952 10.0646 44.9623 10.624H43.3388ZM42.5868 11.3759H38.8504C39.0174 12.5623 39.9708 13.692 41.5653 14.569C42.0278 14.8234 42.5388 15.0529 43.0905 15.253C42.7908 14.0605 42.6142 12.7506 42.5868 11.3759ZM43.9432 15.529C43.5858 14.2846 43.3698 12.8761 43.3388 11.3759H44.9623C46.3952 11.9353 47.5367 13.0767 48.0964 14.5095V16.1334C46.5961 16.1024 45.1876 15.8864 43.9432 15.529ZM43.3402 16.1319C42.5596 15.8832 41.8414 15.5789 41.203 15.2278C40.4125 14.793 39.73 14.2771 39.2057 13.6958C40.1238 16.8568 42.6153 19.3484 45.7764 20.2664C45.1951 19.7422 44.6791 19.0596 44.2444 18.2692C43.8932 17.6308 43.589 16.9126 43.3402 16.1319ZM48.0964 20.6217C46.9099 20.4547 45.7801 19.5014 44.9031 17.9069C44.6488 17.4444 44.4192 16.9334 44.2192 16.3817C45.4117 16.6814 46.7216 16.8581 48.0964 16.8854V20.6217ZM51.1681 20.2664C51.7494 19.7422 52.2653 19.0596 52.7 18.2692C53.051 17.6308 53.3557 16.9126 53.6043 16.1319C54.3848 15.8832 55.1029 15.5789 55.7415 15.2278C56.5319 14.793 57.2147 14.2771 57.7388 13.6958C56.8205 16.8568 54.3292 19.3484 51.1681 20.2664ZM52.7255 16.3817C52.5253 16.9334 52.2955 17.4444 52.0412 17.9069C51.1644 19.5014 50.0346 20.4547 48.8481 20.6217V16.8854C50.2228 16.8581 51.5328 16.6814 52.7255 16.3817ZM53.8539 15.253C54.4056 15.0529 54.9168 14.8234 55.3791 14.569C56.9739 13.6921 57.9271 12.5623 58.094 11.3759H54.3578C54.3302 12.7506 54.1534 14.0605 53.8539 15.253ZM53.6059 11.3759C53.5747 12.8761 53.3589 14.2846 53.0011 15.529C51.7568 15.8864 50.3484 16.1024 48.8481 16.1334V14.5107C49.4076 13.0774 50.5494 11.9355 51.9826 11.3759H53.6059ZM54.3578 10.624H58.094C57.9271 9.43755 56.9739 8.3078 55.3791 7.43087C54.9168 7.17649 54.4056 6.94696 53.8539 6.74692C54.1534 7.93938 54.3302 9.24931 54.3578 10.624ZM53.0011 6.47085C53.3589 7.71531 53.5747 9.12378 53.6059 10.624H51.9827C50.5494 10.0644 49.4076 8.92249 48.8481 7.48916V5.86645C50.3484 5.8975 51.7568 6.1135 53.0011 6.47085ZM53.6043 5.86796C54.3848 6.11668 55.1029 6.42098 55.7415 6.77214C56.5319 7.20686 57.2147 7.7228 57.7388 8.30411C56.8205 5.14308 54.3292 2.65146 51.1681 1.73343C51.7494 2.25768 52.2653 2.94025 52.7 3.73068C53.051 4.36911 53.3557 5.08733 53.6043 5.86796ZM48.8481 1.37817C50.0346 1.54514 51.1644 2.49851 52.0412 4.09299C52.2955 4.5555 52.5253 5.06646 52.7255 5.61817C51.5328 5.31851 50.2228 5.14184 48.8481 5.11452V1.37817Z" fill="white"/>
</g>
<defs>
<clipPath id="clip0_67_880">
<rect width="113.36" height="20.8" fill="white" transform="translate(-0.00585938 0.600098)"/>
</clipPath>
</defs>
</svg>
