<svg width="109" height="26" viewBox="0 0 109 26" fill="none" xmlns="http://www.w3.org/2000/svg">
<g clip-path="url(#clip0_67_893)">
<path d="M33.7598 17.8423H41.3391V15.5594H36.4536V6.96036H33.7598V17.8423Z" fill="white"/>
<path d="M45.8288 16.3215C44.7482 16.3215 44.185 15.3779 44.185 13.9624C44.185 12.547 44.7482 11.5882 45.8288 11.5882C46.9093 11.5882 47.4877 12.547 47.4877 13.9624C47.4877 15.3779 46.9093 16.3215 45.8288 16.3215ZM45.844 18.0869C48.3552 18.0869 49.9989 16.3062 49.9989 13.9624C49.9989 11.6186 48.3552 9.83795 45.844 9.83795C43.348 9.83795 41.6738 11.6186 41.6738 13.9624C41.6738 16.3062 43.348 18.0869 45.844 18.0869Z" fill="white"/>
<path d="M54.3463 20.5389C55.503 20.5389 56.5227 20.2802 57.2076 19.6714C57.8316 19.1083 58.2425 18.256 58.2425 17.0841V10.0527H55.8683V10.8898H55.8378C55.3812 10.2353 54.6811 9.8244 53.6462 9.8244C51.7133 9.8244 50.374 11.4377 50.374 13.7206C50.374 16.1101 52.0025 17.4189 53.7528 17.4189C54.6964 17.4189 55.2899 17.0385 55.7465 16.521H55.8074V17.2972C55.8074 18.2408 55.366 18.7887 54.3159 18.7887C53.494 18.7887 53.0831 18.4386 52.9461 18.0277H50.5414C50.785 19.6562 52.2004 20.5389 54.3463 20.5389ZM54.3311 15.5774C53.4027 15.5774 52.7939 14.8164 52.7939 13.6445C52.7939 12.4574 53.4027 11.6964 54.3311 11.6964C55.366 11.6964 55.9139 12.5791 55.9139 13.6293C55.9139 14.7251 55.4117 15.5774 54.3311 15.5774Z" fill="white"/>
<path d="M63.1237 16.3215C62.0431 16.3215 61.48 15.3779 61.48 13.9624C61.48 12.547 62.0431 11.5882 63.1237 11.5882C64.2043 11.5882 64.7826 12.547 64.7826 13.9624C64.7826 15.3779 64.2043 16.3215 63.1237 16.3215ZM63.1389 18.0869C65.6501 18.0869 67.2938 16.3062 67.2938 13.9624C67.2938 11.6186 65.6501 9.83795 63.1389 9.83795C60.6429 9.83795 58.9688 11.6186 58.9688 13.9624C58.9688 16.3062 60.6429 18.0869 63.1389 18.0869Z" fill="white"/>
<path d="M68.0176 17.8423H70.4984V10.0499H68.0176V17.8423ZM68.0176 8.96933H70.4984V6.96036H68.0176V8.96933Z" fill="white"/>
<path d="M71.5752 20.4172H74.056V17.0384H74.0864C74.5734 17.6929 75.2888 18.0886 76.2932 18.0886C78.3327 18.0886 79.6872 16.4753 79.6872 13.9489C79.6872 11.6051 78.424 9.8244 76.3541 9.8244C75.2888 9.8244 74.5278 10.2962 73.9951 10.9963H73.9494V10.0527H71.5752V20.4172ZM75.654 16.1709C74.5887 16.1709 73.9799 15.3034 73.9799 14.0402C73.9799 12.777 74.5278 11.8182 75.6084 11.8182C76.6737 11.8182 77.176 12.7009 77.176 14.0402C77.176 15.3643 76.5976 16.1709 75.654 16.1709Z" fill="white"/>
<path d="M83.7262 18.0886C85.7656 18.0886 87.2723 17.2059 87.2723 15.5013C87.2723 13.5075 85.6591 13.1575 84.2893 12.9292C83.3 12.7465 82.4173 12.6705 82.4173 12.1225C82.4173 11.6355 82.8891 11.4072 83.4979 11.4072C84.1828 11.4072 84.6546 11.6203 84.7459 12.3204H87.0288C86.9071 10.7832 85.7199 9.8244 83.5131 9.8244C81.6715 9.8244 80.1496 10.6767 80.1496 12.3204C80.1496 14.1467 81.5954 14.512 82.95 14.7403C83.9849 14.9229 84.9285 14.999 84.9285 15.6991C84.9285 16.2014 84.4567 16.4753 83.711 16.4753C82.8891 16.4753 82.3716 16.0948 82.2803 15.3186H79.9365C80.0126 17.0385 81.4433 18.0886 83.7262 18.0886Z" fill="white"/>
<path d="M90.6419 18.0719C91.7224 18.0719 92.4073 17.6458 92.9704 16.8848H93.0161V17.8436H95.3903V10.0512H92.9096V14.404C92.9096 15.3324 92.3921 15.9716 91.5398 15.9716C90.7484 15.9716 90.3679 15.4998 90.3679 14.6475V10.0512H87.9023V15.165C87.9023 16.9 88.846 18.0719 90.6419 18.0719Z" fill="white"/>
<path d="M96.4697 17.8451H98.9505V13.4771C98.9505 12.5487 99.4071 11.8943 100.183 11.8943C100.929 11.8943 101.279 12.3813 101.279 13.2184V17.8451H103.76V13.4771C103.76 12.5487 104.201 11.8943 104.993 11.8943C105.738 11.8943 106.088 12.3813 106.088 13.2184V17.8451H108.569V12.777C108.569 11.0267 107.687 9.8244 105.921 9.8244C104.917 9.8244 104.079 10.2505 103.471 11.1942H103.44C103.045 10.3571 102.268 9.8244 101.249 9.8244C100.122 9.8244 99.3766 10.3571 98.8896 11.1637H98.844V10.0527H96.4697V17.8451Z" fill="white"/>
<path fill-rule="evenodd" clip-rule="evenodd" d="M13.9886 25.4538C20.9932 25.4538 26.6715 19.7755 26.6715 12.7709C26.6715 5.76629 20.9932 0.0879517 13.9886 0.0879517C6.98399 0.0879517 1.30566 5.76629 1.30566 12.7709C1.30566 19.7755 6.98399 25.4538 13.9886 25.4538ZM17.9452 5.99619C18.1378 5.31208 17.4739 4.90755 16.8676 5.33951L8.40374 11.3691C7.74619 11.8376 7.84962 12.7709 8.5591 12.7709H10.7879V12.7536H15.1317L11.5923 14.0024L10.032 19.5456C9.83938 20.2297 10.5032 20.6342 11.1096 20.2022L19.5735 14.1726C20.231 13.7042 20.1275 12.7709 19.4181 12.7709H16.0382L17.9452 5.99619Z" fill="white"/>
</g>
<defs>
<clipPath id="clip0_67_893">
<rect width="107.805" height="26" fill="white" transform="translate(0.87207)"/>
</clipPath>
</defs>
</svg>
