<svg width="106" height="26" viewBox="0 0 106 26" fill="none" xmlns="http://www.w3.org/2000/svg">
<g clip-path="url(#clip0_67_853)">
<path d="M30.8398 18.2587H38.4192V15.9758H33.5337V7.37677H30.8398V18.2587Z" fill="white"/>
<path d="M42.9098 16.7379C41.8292 16.7379 41.2661 15.7943 41.2661 14.3789C41.2661 12.9634 41.8292 12.0046 42.9098 12.0046C43.9904 12.0046 44.5687 12.9634 44.5687 14.3789C44.5687 15.7943 43.9904 16.7379 42.9098 16.7379ZM42.925 18.5033C45.4362 18.5033 47.08 16.7227 47.08 14.3789C47.08 12.035 45.4362 10.2544 42.925 10.2544C40.429 10.2544 38.7549 12.035 38.7549 14.3789C38.7549 16.7227 40.429 18.5033 42.925 18.5033Z" fill="white"/>
<path d="M51.4254 20.952C52.5821 20.952 53.6018 20.6932 54.2867 20.0845C54.9107 19.5213 55.3216 18.669 55.3216 17.4971V10.4657H52.9474V11.3028H52.9169C52.4603 10.6484 51.7602 10.2374 50.7253 10.2374C48.7924 10.2374 47.4531 11.8507 47.4531 14.1336C47.4531 16.5231 49.0816 17.832 50.8319 17.832C51.7755 17.832 52.369 17.4515 52.8256 16.934H52.8865V17.7102C52.8865 18.6538 52.4451 19.2017 51.395 19.2017C50.5731 19.2017 50.1622 18.8517 50.0252 18.4407H47.6205C47.8641 20.0692 49.2795 20.952 51.4254 20.952ZM51.4102 15.9904C50.4818 15.9904 49.873 15.2294 49.873 14.0575C49.873 12.8704 50.4818 12.1094 51.4102 12.1094C52.4451 12.1094 52.993 12.9922 52.993 14.0423C52.993 15.1381 52.4908 15.9904 51.4102 15.9904Z" fill="white"/>
<path d="M60.2038 16.7379C59.1232 16.7379 58.5601 15.7943 58.5601 14.3789C58.5601 12.9634 59.1232 12.0046 60.2038 12.0046C61.2843 12.0046 61.8627 12.9634 61.8627 14.3789C61.8627 15.7943 61.2843 16.7379 60.2038 16.7379ZM60.219 18.5033C62.7302 18.5033 64.3741 16.7227 64.3741 14.3789C64.3741 12.035 62.7302 10.2544 60.219 10.2544C57.723 10.2544 56.0488 12.035 56.0488 14.3789C56.0488 16.7227 57.723 18.5033 60.219 18.5033Z" fill="white"/>
<path d="M65.0986 18.2587H67.5794V10.4663H65.0986V18.2587ZM65.0986 9.38575H67.5794V7.37677H65.0986V9.38575Z" fill="white"/>
<path d="M68.6553 20.8302H71.1361V17.4515H71.1665C71.6535 18.1059 72.3688 18.5016 73.3733 18.5016C75.4127 18.5016 76.7673 16.8884 76.7673 14.3619C76.7673 12.0181 75.5041 10.2374 73.4342 10.2374C72.3688 10.2374 71.6079 10.7092 71.0752 11.4093H71.0295V10.4657H68.6553V20.8302ZM72.7341 16.584C71.6687 16.584 71.06 15.7165 71.06 14.4532C71.06 13.19 71.6079 12.2312 72.6884 12.2312C73.7538 12.2312 74.2561 13.1139 74.2561 14.4532C74.2561 15.7773 73.6777 16.584 72.7341 16.584Z" fill="white"/>
<path d="M80.8072 18.5016C82.8467 18.5016 84.3534 17.6189 84.3534 15.9143C84.3534 13.9205 82.7401 13.5705 81.3704 13.3422C80.3811 13.1596 79.4984 13.0835 79.4984 12.5356C79.4984 12.0485 79.9702 11.8203 80.5789 11.8203C81.2638 11.8203 81.7356 12.0333 81.8269 12.7334H84.1099C83.9881 11.1963 82.801 10.2374 80.5942 10.2374C78.7526 10.2374 77.2307 11.0897 77.2307 12.7334C77.2307 14.5598 78.6765 14.925 80.031 15.1533C81.066 15.336 82.0096 15.4121 82.0096 16.1122C82.0096 16.6144 81.5378 16.8884 80.792 16.8884C79.9702 16.8884 79.4527 16.5079 79.3614 15.7317H77.0176C77.0937 17.4515 78.5243 18.5016 80.8072 18.5016Z" fill="white"/>
<path d="M87.7219 18.4883C88.8025 18.4883 89.4874 18.0622 90.0505 17.3012H90.0962V18.26H92.4704V10.4677H89.9896V14.8204C89.9896 15.7488 89.4722 16.388 88.6199 16.388C87.8285 16.388 87.448 15.9162 87.448 15.0639V10.4677H84.9824V15.5814C84.9824 17.3164 85.926 18.4883 87.7219 18.4883Z" fill="white"/>
<path d="M93.5498 18.2581H96.0306V13.8901C96.0306 12.9617 96.4872 12.3073 97.2634 12.3073C98.0091 12.3073 98.3592 12.7943 98.3592 13.6314V18.2581H100.84V13.8901C100.84 12.9617 101.281 12.3073 102.073 12.3073C102.818 12.3073 103.169 12.7943 103.169 13.6314V18.2581H105.649V13.19C105.649 11.4398 104.767 10.2374 103.001 10.2374C101.997 10.2374 101.16 10.6636 100.551 11.6072H100.52C100.125 10.7701 99.3484 10.2374 98.3287 10.2374C97.2025 10.2374 96.4567 10.7701 95.9697 11.5767H95.9241V10.4657H93.5498V18.2581Z" fill="white"/>
<path fill-rule="evenodd" clip-rule="evenodd" d="M5.48911 2.4677C4.58186 3.10207 3.76147 3.85211 3.04929 4.69643C5.95958 4.42624 9.65699 4.86742 13.9497 7.01377C18.5336 9.30571 22.2249 9.3832 24.7938 8.88768C24.5607 8.18194 24.2672 7.50365 23.9196 6.85885C20.9789 7.16901 17.2089 6.75847 12.8153 4.56172C10.0253 3.16673 7.56596 2.59208 5.48911 2.4677ZM22.2018 4.41376C19.8795 1.81905 16.5046 0.186127 12.7483 0.186127C11.6452 0.186127 10.5749 0.326975 9.55458 0.591651C10.9365 0.968717 12.4046 1.52036 13.9497 2.29293C17.1664 3.90129 19.9436 4.41915 22.2018 4.41376ZM25.343 11.3649C22.2395 11.9777 17.9539 11.8519 12.8153 9.28256C8.01126 6.88054 4.18765 6.91079 1.60888 7.48387C1.47577 7.51342 1.3458 7.54449 1.21896 7.57683C0.881335 8.31111 0.611832 9.08325 0.41846 9.88506C0.624992 9.82989 0.83841 9.77745 1.0586 9.72849C4.18711 9.03328 8.60742 9.06346 13.9497 11.7346C18.7538 14.1366 22.5773 14.1064 25.1562 13.5333C25.2445 13.5137 25.3316 13.4934 25.4172 13.4725C25.4266 13.2725 25.4313 13.0713 25.4313 12.869C25.4313 12.3601 25.4013 11.8582 25.343 11.3649ZM25.0031 16.149C21.9297 16.6863 17.7689 16.4801 12.8153 14.0034C8.01126 11.6014 4.18765 11.6316 1.60888 12.2047C1.03647 12.3319 0.521532 12.4868 0.0672877 12.6503C0.0660492 12.7231 0.0654297 12.796 0.0654297 12.869C0.0654297 19.8736 5.74376 25.552 12.7483 25.552C18.6187 25.552 23.5575 21.5638 25.0031 16.149Z" fill="white"/>
</g>
<defs>
<clipPath id="clip0_67_853">
<rect width="105.902" height="26" fill="white"/>
</clipPath>
</defs>
</svg>
